M48
;Layer_Color=9474304
;FILE_FORMAT=4:4
METRIC,LZ
;TYPE=PLATED
T1F00S00C0.3000
T2F00S00C0.5000
T3F00S00C0.7000
T4F00S00C1.0000
T5F00S00C1.1000
T6F00S00C1.6000
T7F00S00C2.5000
%
T01
X015605Y00775
X015715
X015825
Y00786
X015715
X015605
Y00797
X015715
X015825
T02
X016095Y00564
X0162175
X01631Y00582
X0162175Y0064975
X016095Y0064075
X01611Y0066575
X01631Y0068675
X0166475Y00687
Y00657
X01691Y006955
X017Y007045
X01709Y0071325
X016835Y007225
X016925Y007316
X016955Y0078
Y007935
X01767
X01777Y0078
X017515Y0067075
X0174913Y0065538
X0174725Y0063975
X01569Y00661
X01556326Y00661782
X01534Y00663532
X01522Y00659
X01545Y0067575
Y00608
X01534Y006135
X0155633
X01569Y00573
X01522
X01418Y00604
X0137625
X0138225Y00651
X0139975Y0067
X013895Y006845
X01399Y00703
X0140875Y00712
X014085Y007525
X0138875Y00778
X0139875Y00788
X0132175Y0067
X0132025Y0065075
X01336Y0055775
X0134875Y00558
Y0051575
X01336Y00498
X00913Y0053575
Y00597
X0038275Y0106825
X003845Y0108575
X0040575Y0106825
X01399Y00947
Y0091325
X01469Y00913
Y00958
X0152525Y009545
X01525Y00967
X01547Y00961
X01546997Y00975997
X01548Y00947
X01571Y00935
X0156425Y0092425
X01563826Y00897044
X01521574Y00897294
X01531Y00873293
X015345Y0092125
X014085Y00798
X0159275Y0094
X016955Y00942
Y008912
Y008405
X01642Y0111575
T03
X0168Y0049
X01715
X0175
X01785
X0182
X018025Y00525
X0182Y0056
X018025Y00595
X017675
X017325
X01785Y0063
X0182
X018025Y00665
X016975Y00525
X016025Y007435
X01493Y00748
X01454
X01429Y0073
X0136725Y0077
X0129Y0079
X0126Y007
X01225
X012425Y00665
X012775Y00595
X013145Y006105
X01323Y0056
Y0050975
X0127Y0049
X01235
X012
X01404Y00526
X01439
X01474
X014915Y00561
X014565
X014215
X0116Y00613
X01103
X01068
X0105Y0063
X01015
X0098
X009975Y00665
X0098Y007
X00945
X0091
X009275Y00735
X008925
Y00665
X00885Y0049
X0085
X00815
X00805Y0056
X0092Y0049
X00955
X0099
X01025
X0106
X01095
X0113
X01165
X0078
X00745
X0071
X00675
X0064
X00665Y0056
X00667Y00578
X007Y0056
X00735
X0077
X007875Y00665
X007525
X0065175Y0063975
X0063Y007
Y0077
X00665
X0045375Y00791
X00433Y0074
X005515Y005705
X003675Y00665
X0035Y007
X00384Y00721
X00387Y00778
X003085Y00793
X0028Y0049
X00384Y00866
X00353Y00929
X0028Y0105
X002975Y01085
X0028Y0112
X00315
X0035
X003675Y01155
X003325
X002975
X0028Y0119
X00315
X0035
X00385
X00448Y01156
X0042Y0112
X00404Y01037
Y01002
X00447Y01037
X00525Y01065
X00542Y01121
X0077Y0112
Y0105
X007875Y01015
X0077Y0119
X0066475Y0081
X0063Y0084
X00502Y00863
X00405Y00815
X0084Y0084
X008225Y00875
X00805Y0091
X0084Y0098
X008225Y01015
X00805Y0105
X009625Y01015
X00945Y0098
X0098
X01015
X0105
X01043Y010045
X011079Y0100465
X0112Y0098
X01134Y00993
Y00965
X0113Y00943
X011025Y00945
X0112Y0091
X01134Y00864
X0103625Y0085525
X010325Y00875
X009975
X009625
X00945Y0084
X0098Y0091
X01015
X0105
X010325Y00945
X009975
X009625
X009975Y01085
X0104325Y01088
X01108Y0108775
X011375Y01155
X011725
X01155Y0119
X0119
X01015
X0098
X0091
X0090775Y0115675
X01333Y01067
X01345Y01
X0144325Y0098675
X01478Y0097825
X01518Y009785
X01505Y00859
X0153475Y0083675
X01454Y0084775
X01367Y0084
X0136725Y00805
X0129Y0082
Y0085
Y0088
Y0091
X014115Y0106625
X0145775Y0115
Y0116475
Y01179
X01505Y0119
X01512Y011345
X0161075Y0115125
X0161Y0109
X016275Y01015
X016625
X0161Y00991
Y00956
X0166525Y0086975
X01645Y0084
X01729Y00815
X0182Y0098
Y0105
X01785
X018025Y01085
X017675
X0175Y0112
X01715
X017325Y01155
X017675
X018025
X01785Y0112
X0182
Y0119
X01785
X0175
X01715
X017325Y01225
X017675
X018025
X01785Y0126
X0175
X01715
X017325Y01295
X016975
X0168Y0133
X01715
X016975Y01365
X016625
X01645Y014
X0161
X0168
X01715
X0175
X01785
X0182
X018025Y01365
X01785Y0133
X0182
X018025Y01295
X017675
X0182Y0126
X0161
X016275Y01225
X015925
X0161Y012
X015925Y01295
X01575Y0126
X0154
X01505
X015225Y01225
X014875
Y01295
X0147Y0133
X01505
X01505Y014
X0154
X01575
X0147
X01435
X014Y014
X01365
X0133
X01295
X0126
X01225
X012075Y01365
X015575Y01225
X011725
X010675
X010325
X009975
X009625
X009275
X0091Y0126
X00945
X0098
X01015
X0105
X01085
X011025Y01295
X010675
X010325
X009975
X009625
X009275
X0091Y0133
X00945
X0098
X01015
X0105
X01085
X0112
X01155
X011725Y01365
X011375
X011025
X010675
X010325
X009975
X009625
X009275
X008925
X008575
X008225
X00805Y014
X0084
X00875
X0091
X00945
X0098
X01015
X0105
X01085
X0112
X01155
X0119
X011375Y01295
X00783Y01238
X007875Y01365
X007525
X007175
X006825
X006475
X006125
X005775
X005425
X005075
X004725
X004375
X004025
X0042Y0133
X00455
X0049
X00525
X0056
X005425Y01295
X005075
X004725
X004375
X004025
X0042Y0126
X00455
X0049
X00525
X0056
X00595
X00645Y01239
X0063Y0133
X00665
Y014
X0063
X00595
X0056
X00525
X0049
X00455
X0042
X004375Y01225
X004025
X004725
X005075
X005425
X007Y014
X00735
X0077
X00385
X0035
X00315
X0028
X002975Y01365
X0028Y0133
X002975Y01295
X003325
X003675
X0035Y0126
X00315
X0028
X002975Y01225
X003325
X003675
X00385Y0126
T04
X00724Y008962
Y009216
Y00947
T05
X016041Y005011
Y005265
X016295
Y005011
X016549
Y005265
X01611Y006925
X0181Y007062
Y007316
Y00757
X015787Y005265
Y005011
X015533
Y005265
X015279
Y005011
X015025
Y005265
X01149Y00682
X01082Y00765
X00976Y00753
Y007784
X00726Y00769
X00701Y00657
X00745Y00595
X0054Y00684
Y00742
X00408Y00755
X00344Y00866
X0041Y01086
X0051875Y011725
X00725Y01155
X006Y00984
X00804Y00821
X00976Y008038
X00986Y010296
X00986Y01113
X00944Y01166
X0093Y01067
X01269Y01057
X012886Y00999
Y009736
Y009482
X01314
Y009736
Y00999
X01394Y01001
X01578Y01032
X0132Y01166
X01635
X0159275Y0086775
X0181Y008658
Y008404
Y00815
Y008912
Y009166
Y00942
X01425Y01212
X01417Y01276
X014424
X013916
X007454Y0128
X0072
X006946
T06
X0032Y005992
Y0065
Y007008
T07
X00935Y006534
Y009074
X01292Y01317
X01546
X00849
X00595
M30
