G04 Layer_Color=8421504*
%FSLAX44Y44*%
%MOMM*%
G71*
G01*
G75*
%ADD10R,4.3000X2.1000*%
%ADD11R,1.2000X1.4000*%
%ADD12R,2.1000X4.3000*%
%ADD13R,1.4000X1.2000*%
%ADD14R,1.1500X1.8000*%
%ADD15R,5.4000X1.6000*%
%ADD16R,1.8000X1.1500*%
%ADD17R,1.4500X0.6000*%
%ADD18O,1.4500X0.6000*%
%ADD19R,0.6000X1.1000*%
%ADD20R,1.8000X1.4000*%
G04:AMPARAMS|DCode=21|XSize=1.4mm|YSize=1.8mm|CornerRadius=0.35mm|HoleSize=0mm|Usage=FLASHONLY|Rotation=270.000|XOffset=0mm|YOffset=0mm|HoleType=Round|Shape=RoundedRectangle|*
%AMROUNDEDRECTD21*
21,1,1.4000,1.1000,0,0,270.0*
21,1,0.7000,1.8000,0,0,270.0*
1,1,0.7000,-0.5500,-0.3500*
1,1,0.7000,-0.5500,0.3500*
1,1,0.7000,0.5500,0.3500*
1,1,0.7000,0.5500,-0.3500*
%
%ADD21ROUNDEDRECTD21*%
%ADD22R,0.6000X1.0500*%
G04:AMPARAMS|DCode=23|XSize=0.6mm|YSize=1.05mm|CornerRadius=0.15mm|HoleSize=0mm|Usage=FLASHONLY|Rotation=180.000|XOffset=0mm|YOffset=0mm|HoleType=Round|Shape=RoundedRectangle|*
%AMROUNDEDRECTD23*
21,1,0.6000,0.7500,0,0,180.0*
21,1,0.3000,1.0500,0,0,180.0*
1,1,0.3000,-0.1500,0.3750*
1,1,0.3000,0.1500,0.3750*
1,1,0.3000,0.1500,-0.3750*
1,1,0.3000,-0.1500,-0.3750*
%
%ADD23ROUNDEDRECTD23*%
%ADD24R,0.6000X1.4500*%
%ADD25O,0.6000X1.4500*%
%ADD26O,1.4000X0.8000*%
%ADD27R,1.4000X0.8000*%
%ADD28R,2.7500X1.0000*%
%ADD29R,6.1500X5.5500*%
%ADD30O,0.4500X1.5000*%
%ADD31R,0.4500X1.5000*%
%ADD32R,1.1000X0.6000*%
%ADD33O,0.4500X1.4000*%
%ADD34R,0.4500X1.4000*%
%ADD35O,1.4000X0.4500*%
%ADD36R,1.4000X0.4500*%
%ADD37R,0.9000X0.9000*%
%ADD38R,5.4000X3.9000*%
%ADD39R,2.2000X6.4000*%
%ADD40R,1.1500X1.4500*%
%ADD41R,1.4500X1.1500*%
%ADD42R,2.1000X4.0000*%
%ADD43R,1.6000X1.3000*%
%ADD44R,1.6000X2.0000*%
%ADD45R,1.3000X1.6000*%
%ADD46R,1.4000X1.6000*%
%ADD47R,1.7500X2.6500*%
%ADD48R,2.6500X1.7500*%
%ADD49R,1.1000X0.6500*%
%ADD50R,1.1000X1.2500*%
%ADD51R,1.2200X0.9100*%
%ADD52R,1.2500X1.1000*%
%ADD53R,6.4000X5.8000*%
%ADD54R,2.2000X1.2000*%
%ADD55R,0.6000X0.7000*%
%ADD56R,0.7000X0.6000*%
%ADD57R,2.0000X1.8000*%
%ADD58R,3.4500X3.4500*%
%ADD59O,0.3000X0.6000*%
%ADD60O,0.6000X0.3000*%
%ADD61R,0.6000X0.3000*%
D10*
X665750Y1076000D02*
D03*
X758250D02*
D03*
D11*
X763000Y1238000D02*
D03*
X745000D02*
D03*
X507000Y1109000D02*
D03*
X525000D02*
D03*
X507000Y1082000D02*
D03*
X525000D02*
D03*
X684000Y1239000D02*
D03*
X666000D02*
D03*
X483000Y1155000D02*
D03*
X465000D02*
D03*
X481000Y1037000D02*
D03*
X463000D02*
D03*
X1536000Y997000D02*
D03*
X1518000D02*
D03*
X1460000D02*
D03*
X1478000D02*
D03*
X1378750Y1066250D02*
D03*
X1396750D02*
D03*
X1085000Y660000D02*
D03*
X1103000D02*
D03*
Y630000D02*
D03*
X1085000D02*
D03*
X1077000Y913000D02*
D03*
X1095000D02*
D03*
X1102000Y884000D02*
D03*
X1120000D02*
D03*
X1181000Y943000D02*
D03*
X1163000D02*
D03*
X694000Y821000D02*
D03*
X676000D02*
D03*
X670000Y737000D02*
D03*
X652000D02*
D03*
X670000Y687000D02*
D03*
X652000D02*
D03*
X670000Y657000D02*
D03*
X652000D02*
D03*
X1419500Y847750D02*
D03*
X1437500D02*
D03*
D12*
X851000Y1137250D02*
D03*
Y1044750D02*
D03*
D13*
X1427000Y1005000D02*
D03*
Y987000D02*
D03*
X1348000Y1101000D02*
D03*
Y1119000D02*
D03*
X1596000Y1122500D02*
D03*
Y1140500D02*
D03*
Y1180500D02*
D03*
Y1162500D02*
D03*
X1147000Y712000D02*
D03*
Y730000D02*
D03*
X768000Y947000D02*
D03*
Y929000D02*
D03*
X664000Y859000D02*
D03*
Y877000D02*
D03*
X715000Y596000D02*
D03*
Y578000D02*
D03*
X685000Y596000D02*
D03*
Y578000D02*
D03*
X1489000Y819000D02*
D03*
Y837000D02*
D03*
X1519000Y819000D02*
D03*
Y837000D02*
D03*
X1619000Y761500D02*
D03*
Y743500D02*
D03*
X1469000Y781500D02*
D03*
Y763500D02*
D03*
X1499000Y781500D02*
D03*
Y763500D02*
D03*
X1429000Y693500D02*
D03*
Y711500D02*
D03*
X434000Y703000D02*
D03*
Y721000D02*
D03*
X404000Y703000D02*
D03*
Y721000D02*
D03*
X516000Y838000D02*
D03*
Y820000D02*
D03*
X436000Y838000D02*
D03*
Y820000D02*
D03*
D14*
X1181750Y970000D02*
D03*
X1148250D02*
D03*
X1181750Y999000D02*
D03*
X1148250D02*
D03*
X1181750Y1029000D02*
D03*
X1148250D02*
D03*
X694750Y794000D02*
D03*
X661250D02*
D03*
D15*
X1170000Y1113000D02*
D03*
Y1059000D02*
D03*
D16*
X768000Y875250D02*
D03*
Y908750D02*
D03*
D17*
X1433250Y1087950D02*
D03*
D18*
Y1100650D02*
D03*
Y1113350D02*
D03*
Y1126050D02*
D03*
X1378750Y1087950D02*
D03*
Y1100650D02*
D03*
Y1113350D02*
D03*
Y1126050D02*
D03*
D19*
X1553500Y1152500D02*
D03*
X1563000D02*
D03*
X1572500D02*
D03*
Y1126500D02*
D03*
X1553500D02*
D03*
D20*
X1189500Y737500D02*
D03*
Y712100D02*
D03*
Y661300D02*
D03*
Y635900D02*
D03*
Y610500D02*
D03*
X1294500Y737500D02*
D03*
Y712100D02*
D03*
Y661300D02*
D03*
Y635900D02*
D03*
D21*
Y610500D02*
D03*
D22*
X1105500Y718250D02*
D03*
X1115000D02*
D03*
X1124500D02*
D03*
Y691750D02*
D03*
X1115000D02*
D03*
D23*
X1105500D02*
D03*
D24*
X1076950Y795750D02*
D03*
D25*
X1089650D02*
D03*
X1102350D02*
D03*
X1115050D02*
D03*
X1076950Y850250D02*
D03*
X1089650D02*
D03*
X1102350D02*
D03*
X1115050D02*
D03*
D26*
X1125000Y1004900D02*
D03*
Y1030300D02*
D03*
X1061000Y1004900D02*
D03*
X1125000Y1087900D02*
D03*
Y1113300D02*
D03*
X1061000Y1087900D02*
D03*
D27*
X1061000Y1030300D02*
D03*
X1061000Y1113300D02*
D03*
D28*
X701000Y737000D02*
D03*
Y691200D02*
D03*
D29*
X768000Y714100D02*
D03*
D30*
X458250Y684000D02*
D03*
X464750D02*
D03*
X471250D02*
D03*
X477750D02*
D03*
X484250D02*
D03*
X490750D02*
D03*
X497250D02*
D03*
X503750D02*
D03*
X458250Y742000D02*
D03*
X464750D02*
D03*
X471250D02*
D03*
X477750D02*
D03*
X484250D02*
D03*
X490750D02*
D03*
X497250D02*
D03*
D31*
X503750D02*
D03*
D32*
X463000Y819500D02*
D03*
Y829000D02*
D03*
Y838500D02*
D03*
X489000D02*
D03*
Y819500D02*
D03*
D33*
X441500Y1067500D02*
D03*
X448000D02*
D03*
X454500D02*
D03*
X461000D02*
D03*
X467500D02*
D03*
X474000D02*
D03*
X480500D02*
D03*
X441500Y1126500D02*
D03*
X448000D02*
D03*
X454500D02*
D03*
X461000D02*
D03*
X467500D02*
D03*
X474000D02*
D03*
D34*
X480500D02*
D03*
D35*
X1467500Y1061500D02*
D03*
Y1055000D02*
D03*
Y1048500D02*
D03*
Y1042000D02*
D03*
Y1035500D02*
D03*
Y1029000D02*
D03*
Y1022500D02*
D03*
X1526500Y1061500D02*
D03*
Y1055000D02*
D03*
Y1048500D02*
D03*
Y1042000D02*
D03*
Y1035500D02*
D03*
Y1029000D02*
D03*
D36*
Y1022500D02*
D03*
D37*
X686000Y624000D02*
D03*
X670000D02*
D03*
D38*
X1204000Y905000D02*
D03*
Y797000D02*
D03*
D39*
X726000Y821000D02*
D03*
X768000D02*
D03*
D40*
X677500Y1155000D02*
D03*
X696500D02*
D03*
X754500D02*
D03*
X773500D02*
D03*
X562500Y1175000D02*
D03*
X581500D02*
D03*
X925500Y1114000D02*
D03*
X944500D02*
D03*
Y1139000D02*
D03*
X925500D02*
D03*
X1488500Y1085000D02*
D03*
X1507500D02*
D03*
X1395500Y1036000D02*
D03*
X1414500D02*
D03*
X1543500Y1104000D02*
D03*
X1562500D02*
D03*
X1554500Y1180000D02*
D03*
X1573500D02*
D03*
X1045500Y753000D02*
D03*
X1026500D02*
D03*
X1016500Y1029600D02*
D03*
X1035500D02*
D03*
X1016500Y1113000D02*
D03*
X1035500D02*
D03*
X1260500Y1029600D02*
D03*
X1241500D02*
D03*
X1300500D02*
D03*
X1281500D02*
D03*
X1419250Y824500D02*
D03*
X1438250D02*
D03*
X1537500Y860500D02*
D03*
X1518500D02*
D03*
X458500Y656000D02*
D03*
X439500D02*
D03*
X418500Y966000D02*
D03*
X437500D02*
D03*
X506500Y794000D02*
D03*
X525500D02*
D03*
X419500Y929000D02*
D03*
X438500D02*
D03*
X466500Y794000D02*
D03*
X485500D02*
D03*
D41*
X1348000Y1158500D02*
D03*
Y1139500D02*
D03*
X1323000Y1100500D02*
D03*
Y1119500D02*
D03*
X1524000Y1103500D02*
D03*
Y1122500D02*
D03*
X1135000Y627500D02*
D03*
Y646500D02*
D03*
X1549000Y912000D02*
D03*
Y893000D02*
D03*
X1579000D02*
D03*
Y912000D02*
D03*
X1609000D02*
D03*
Y893000D02*
D03*
X1582000Y683500D02*
D03*
Y702500D02*
D03*
X1639000Y912000D02*
D03*
Y893000D02*
D03*
X570000Y570500D02*
D03*
Y589500D02*
D03*
X595000Y570500D02*
D03*
Y589500D02*
D03*
X482000Y1011500D02*
D03*
Y992500D02*
D03*
X664000Y950500D02*
D03*
Y969500D02*
D03*
X1469000Y882000D02*
D03*
Y901000D02*
D03*
X1399000Y882000D02*
D03*
Y901000D02*
D03*
X1439000Y882000D02*
D03*
Y901000D02*
D03*
X1369000Y882000D02*
D03*
Y901000D02*
D03*
D42*
X1436500Y1165000D02*
D03*
X1375500D02*
D03*
D43*
X490750Y874500D02*
D03*
Y899500D02*
D03*
X482000Y950500D02*
D03*
Y973500D02*
D03*
D44*
X461750Y887000D02*
D03*
D45*
X482500Y929000D02*
D03*
X459500D02*
D03*
D46*
X308500Y759000D02*
D03*
Y839000D02*
D03*
X353500Y759000D02*
D03*
Y839000D02*
D03*
D47*
X583000Y1055500D02*
D03*
Y1098500D02*
D03*
X1036000Y788500D02*
D03*
Y831500D02*
D03*
D48*
X579500Y1144000D02*
D03*
X536500D02*
D03*
X1076500Y718000D02*
D03*
X1033500D02*
D03*
D49*
X1494000Y1116000D02*
D03*
X1472000Y1106500D02*
D03*
Y1125500D02*
D03*
D50*
X1665250Y912000D02*
D03*
Y888500D02*
D03*
X664000Y927250D02*
D03*
Y903750D02*
D03*
X595000Y638250D02*
D03*
Y614750D02*
D03*
D51*
X540000Y589500D02*
D03*
Y622500D02*
D03*
D52*
X396250Y929000D02*
D03*
X372750D02*
D03*
D53*
X436500Y600000D02*
D03*
X599500Y925000D02*
D03*
D54*
X499500Y622800D02*
D03*
Y577200D02*
D03*
X536500Y902200D02*
D03*
Y947800D02*
D03*
D55*
X385500Y829000D02*
D03*
X404500D02*
D03*
X395000Y849000D02*
D03*
D56*
X443000Y771500D02*
D03*
Y790500D02*
D03*
X423000Y781000D02*
D03*
X420000Y1021500D02*
D03*
Y1002500D02*
D03*
X440000Y1012000D02*
D03*
D57*
X1510750Y675850D02*
D03*
Y726650D02*
D03*
X1470750D02*
D03*
Y675850D02*
D03*
D58*
X1571500Y786000D02*
D03*
D59*
X1554000Y809500D02*
D03*
X1559000D02*
D03*
X1564000D02*
D03*
X1569000D02*
D03*
X1574000D02*
D03*
X1579000D02*
D03*
X1584000D02*
D03*
X1589000D02*
D03*
Y762500D02*
D03*
X1584000D02*
D03*
X1579000D02*
D03*
X1574000D02*
D03*
X1569000D02*
D03*
X1564000D02*
D03*
X1559000D02*
D03*
X1554000D02*
D03*
D60*
X1595000Y803500D02*
D03*
Y798500D02*
D03*
Y793500D02*
D03*
Y788500D02*
D03*
Y783500D02*
D03*
Y778500D02*
D03*
Y773500D02*
D03*
Y768500D02*
D03*
X1548000D02*
D03*
Y773500D02*
D03*
Y778500D02*
D03*
Y783500D02*
D03*
Y788500D02*
D03*
Y793500D02*
D03*
Y798500D02*
D03*
D61*
Y803500D02*
D03*
M02*
