G04 Layer_Color=16711935*
%FSLAX44Y44*%
%MOMM*%
G71*
G01*
G75*
%ADD143C,6.2032*%
%ADD144C,3.9032*%
%ADD145C,2.2032*%
%ADD146R,2.2032X2.2032*%
%ADD147C,2.0032*%
%ADD148R,2.0032X2.0032*%
%ADD149C,1.9032*%
%ADD150R,2.2032X2.2032*%
%ADD151C,1.8532*%
%ADD152R,1.8532X1.8532*%
%ADD153C,2.8032*%
%ADD154R,2.8032X2.8032*%
%ADD155R,1.8532X1.8532*%
%ADD156C,0.9032*%
D143*
X530000Y530000D02*
D03*
X1750000Y550000D02*
D03*
Y1350000D02*
D03*
X350000D02*
D03*
D144*
X595000Y1317000D02*
D03*
X849000D02*
D03*
X1546000D02*
D03*
X1292000D02*
D03*
X935000Y907400D02*
D03*
Y653400D02*
D03*
D145*
X745400Y1280000D02*
D03*
X720000D02*
D03*
X1417000Y1276000D02*
D03*
X1442400D02*
D03*
X976000Y778400D02*
D03*
Y803800D02*
D03*
D146*
X694600Y1280000D02*
D03*
X1391600Y1276000D02*
D03*
D147*
X724000Y896200D02*
D03*
Y921600D02*
D03*
D148*
Y947000D02*
D03*
D149*
X600000Y984000D02*
D03*
X408000Y755000D02*
D03*
X344000Y866000D02*
D03*
X804000Y821000D02*
D03*
X726000Y769000D02*
D03*
X930000Y1067000D02*
D03*
X944000Y1166000D02*
D03*
X725000Y1155000D02*
D03*
X518750Y1172500D02*
D03*
X1082000Y765000D02*
D03*
X1269000Y1057000D02*
D03*
X1149000Y682000D02*
D03*
X986000Y1029600D02*
D03*
X986000Y1113000D02*
D03*
X1394000Y1001000D02*
D03*
X1320000Y1166000D02*
D03*
X1425000Y1212000D02*
D03*
X1635000Y1166000D02*
D03*
X1592750Y867750D02*
D03*
X1611000Y692500D02*
D03*
X410000Y1086000D02*
D03*
X540000Y742000D02*
D03*
Y684000D02*
D03*
X701000Y657000D02*
D03*
X745000Y595000D02*
D03*
X1578000Y1032000D02*
D03*
D150*
X976000Y753000D02*
D03*
D151*
X1810000Y757000D02*
D03*
Y731600D02*
D03*
X1314000Y948200D02*
D03*
X1288600D02*
D03*
X1314000Y973600D02*
D03*
X1288600D02*
D03*
X1314000Y999000D02*
D03*
X1578700Y526500D02*
D03*
Y501100D02*
D03*
X1553300Y526500D02*
D03*
Y501100D02*
D03*
X1527900Y526500D02*
D03*
Y501100D02*
D03*
X1502500Y526500D02*
D03*
X1604100Y501100D02*
D03*
Y526500D02*
D03*
X1629500Y501100D02*
D03*
Y526500D02*
D03*
X1654900Y501100D02*
D03*
Y526500D02*
D03*
X1810000Y840400D02*
D03*
Y865800D02*
D03*
Y891200D02*
D03*
Y916600D02*
D03*
Y942000D02*
D03*
D152*
Y706200D02*
D03*
X1288600Y999000D02*
D03*
X1810000Y815000D02*
D03*
D153*
X320000Y700800D02*
D03*
Y650000D02*
D03*
D154*
Y599200D02*
D03*
D155*
X1502500Y501100D02*
D03*
D156*
X1582500Y775000D02*
D03*
X1571500D02*
D03*
X1560500D02*
D03*
X1582500Y786000D02*
D03*
X1571500D02*
D03*
X1560500D02*
D03*
X1582500Y797000D02*
D03*
X1571500D02*
D03*
X1560500D02*
D03*
M02*
