G04 Layer_Color=8388736*
%FSLAX44Y44*%
%MOMM*%
G71*
G01*
G75*
%ADD86R,3.7532X5.1032*%
%ADD87R,3.6532X3.6532*%
%ADD88O,0.5032X0.8032*%
%ADD89O,0.8032X0.5032*%
%ADD90R,0.8032X0.5032*%
%ADD91R,1.6532X1.3532*%
%ADD92R,1.3032X0.8032*%
%ADD93R,2.2032X2.0032*%
%ADD94R,1.6032X1.4032*%
%ADD95O,1.6032X0.6532*%
%ADD96R,1.6032X0.6532*%
%ADD97R,1.4032X1.6032*%
%ADD98R,1.3532X1.6532*%
%ADD99R,1.6032X1.0032*%
%ADD100O,1.6032X1.0032*%
%ADD101R,1.8032X5.6032*%
%ADD102R,1.6532X0.8032*%
%ADD103O,1.6532X0.8032*%
%ADD104R,0.9032X0.8032*%
%ADD105R,0.8032X0.9032*%
%ADD106R,2.4032X6.6032*%
%ADD107R,1.3032X1.4532*%
%ADD108R,1.1032X1.1032*%
%ADD109R,2.3032X4.2032*%
%ADD110R,0.8032X1.3032*%
%ADD111R,1.3532X2.0032*%
%ADD112R,2.8532X1.9532*%
%ADD113R,0.6532X1.6032*%
%ADD114O,0.6532X1.6032*%
%ADD115R,1.4532X1.3032*%
%ADD116R,2.9532X1.2032*%
%ADD117R,6.3532X5.7532*%
%ADD118R,1.5032X1.8032*%
%ADD119R,1.3032X0.8532*%
%ADD120R,6.6032X6.0032*%
%ADD121R,2.4032X1.4032*%
%ADD122R,1.8032X1.5032*%
%ADD123R,1.8032X2.2032*%
%ADD124R,1.9532X2.8532*%
%ADD125R,4.5032X2.3032*%
%ADD126R,1.6032X1.8032*%
%ADD127R,1.4232X1.1132*%
%ADD128R,0.6532X1.7032*%
%ADD129O,0.6532X1.7032*%
%ADD130R,2.0032X1.4032*%
%ADD131R,2.0032X1.3532*%
%ADD132R,2.3032X4.5032*%
%ADD133R,1.6032X1.5932*%
%ADD134R,5.0632X3.5632*%
%ADD135C,3.9032*%
%ADD136C,2.2032*%
%ADD137R,2.2032X2.2032*%
%ADD138C,1.8532*%
%ADD139R,1.8532X1.8532*%
%ADD140C,1.9032*%
%ADD141R,1.8532X1.8532*%
%ADD142R,2.8032X2.8032*%
%ADD143C,2.8032*%
%ADD144R,2.0032X2.0032*%
%ADD145C,2.0032*%
%ADD146C,6.2032*%
%ADD147C,1.1032*%
D86*
X1548500Y462000D02*
D03*
X1433500D02*
D03*
D87*
X2051000Y369000D02*
D03*
D88*
X2033500Y392500D02*
D03*
X2038500D02*
D03*
X2043500D02*
D03*
X2048500D02*
D03*
X2053500D02*
D03*
X2058500D02*
D03*
X2063500D02*
D03*
X2068500D02*
D03*
Y345500D02*
D03*
X2063500D02*
D03*
X2058500D02*
D03*
X2053500D02*
D03*
X2048500D02*
D03*
X2043500D02*
D03*
X2038500D02*
D03*
X2033500D02*
D03*
D89*
X2074500Y386500D02*
D03*
Y381500D02*
D03*
Y376500D02*
D03*
Y371500D02*
D03*
Y366500D02*
D03*
Y361500D02*
D03*
Y356500D02*
D03*
Y351500D02*
D03*
X2027500D02*
D03*
Y356500D02*
D03*
Y361500D02*
D03*
Y366500D02*
D03*
Y371500D02*
D03*
Y376500D02*
D03*
Y381500D02*
D03*
D90*
Y386500D02*
D03*
D91*
X1963500Y500500D02*
D03*
Y481500D02*
D03*
X1929500Y500000D02*
D03*
Y481000D02*
D03*
X2059000Y287500D02*
D03*
Y268500D02*
D03*
X1626000Y325000D02*
D03*
Y306000D02*
D03*
X1785000Y706500D02*
D03*
Y725500D02*
D03*
X2008000Y712500D02*
D03*
Y731500D02*
D03*
X2026000Y509500D02*
D03*
Y490500D02*
D03*
X2057000D02*
D03*
Y509500D02*
D03*
X2096000Y509500D02*
D03*
Y490500D02*
D03*
X2132250Y508750D02*
D03*
Y489750D02*
D03*
X1885500Y481000D02*
D03*
Y500000D02*
D03*
X1856000Y481000D02*
D03*
Y500000D02*
D03*
X1202000Y572500D02*
D03*
Y553500D02*
D03*
X1091000Y194500D02*
D03*
Y175500D02*
D03*
X1061000Y194000D02*
D03*
Y175000D02*
D03*
X1738000Y789500D02*
D03*
X1738000Y770500D02*
D03*
X1815000Y776500D02*
D03*
Y757500D02*
D03*
D92*
X1577000Y306000D02*
D03*
Y315500D02*
D03*
Y325000D02*
D03*
X1603000Y325000D02*
D03*
X1603000Y306000D02*
D03*
X964000Y427500D02*
D03*
Y437000D02*
D03*
Y446500D02*
D03*
X990000D02*
D03*
Y427500D02*
D03*
D93*
X1955750Y262350D02*
D03*
Y313150D02*
D03*
X1995750D02*
D03*
Y262350D02*
D03*
D94*
X1916000Y284000D02*
D03*
Y302000D02*
D03*
X935000Y446000D02*
D03*
Y428000D02*
D03*
X1603000Y349000D02*
D03*
Y367000D02*
D03*
X1629000Y367000D02*
D03*
Y349000D02*
D03*
X1191000Y205000D02*
D03*
Y187000D02*
D03*
X2090000Y728000D02*
D03*
Y746000D02*
D03*
X2106000Y327000D02*
D03*
Y345000D02*
D03*
X1974000Y348000D02*
D03*
Y366000D02*
D03*
X1940000D02*
D03*
Y348000D02*
D03*
X1225000Y205000D02*
D03*
Y187000D02*
D03*
X1020000Y428000D02*
D03*
Y446000D02*
D03*
X1815000Y725000D02*
D03*
Y707000D02*
D03*
X1902000Y593000D02*
D03*
Y611000D02*
D03*
X2090000Y789000D02*
D03*
Y771000D02*
D03*
X1983000Y400000D02*
D03*
Y418000D02*
D03*
X1952000Y418000D02*
D03*
Y400000D02*
D03*
X877000Y317000D02*
D03*
Y299000D02*
D03*
X915000Y317000D02*
D03*
Y299000D02*
D03*
X1307000Y534000D02*
D03*
Y552000D02*
D03*
X1202000Y480000D02*
D03*
Y462000D02*
D03*
X1552000Y622000D02*
D03*
Y604000D02*
D03*
D95*
X1954500Y657500D02*
D03*
Y651000D02*
D03*
Y644500D02*
D03*
Y638000D02*
D03*
Y631500D02*
D03*
Y625000D02*
D03*
Y618500D02*
D03*
X2013500Y657500D02*
D03*
Y651000D02*
D03*
Y644500D02*
D03*
Y638000D02*
D03*
Y631500D02*
D03*
Y625000D02*
D03*
D96*
Y618500D02*
D03*
D97*
X2016000Y593000D02*
D03*
X1998000D02*
D03*
X1157000Y259000D02*
D03*
X1175000D02*
D03*
X1157000Y338000D02*
D03*
X1175000D02*
D03*
Y292000D02*
D03*
X1157000D02*
D03*
X1023750Y714000D02*
D03*
X1005750D02*
D03*
X1860000Y668000D02*
D03*
X1842000D02*
D03*
X1974000Y593000D02*
D03*
X1956000D02*
D03*
X1897000Y427000D02*
D03*
X1915000D02*
D03*
X1281000Y869000D02*
D03*
X1263000D02*
D03*
X1219000Y867000D02*
D03*
X1201000D02*
D03*
X1199000Y425000D02*
D03*
X1181000D02*
D03*
X974000Y675000D02*
D03*
X956000D02*
D03*
X974000Y787000D02*
D03*
X956000D02*
D03*
X1023750Y741000D02*
D03*
X1005750D02*
D03*
X1595000Y647000D02*
D03*
X1613000D02*
D03*
X1509000Y563000D02*
D03*
X1527000Y563000D02*
D03*
D98*
X948500Y254000D02*
D03*
X929500D02*
D03*
X1535500Y325000D02*
D03*
X1554500Y325000D02*
D03*
X1547500Y749000D02*
D03*
X1566500D02*
D03*
X921500Y606000D02*
D03*
X940500D02*
D03*
X1189500Y754000D02*
D03*
X1208500D02*
D03*
X1262500D02*
D03*
X1281500D02*
D03*
X1080500Y792000D02*
D03*
X1099500D02*
D03*
X1475000Y712000D02*
D03*
X1494000D02*
D03*
Y740000D02*
D03*
X1475000D02*
D03*
X1974500Y693000D02*
D03*
X1993500D02*
D03*
X1872500Y640000D02*
D03*
X1891500D02*
D03*
X2034500Y713000D02*
D03*
X2053500D02*
D03*
X2039500Y789000D02*
D03*
X2058500D02*
D03*
X1896500Y400000D02*
D03*
X1915500D02*
D03*
X2010500Y441500D02*
D03*
X1991500D02*
D03*
X925500Y560000D02*
D03*
X944500D02*
D03*
X972500Y649000D02*
D03*
X991500D02*
D03*
X952500Y392000D02*
D03*
X933500D02*
D03*
X991500D02*
D03*
X972500D02*
D03*
X1566500Y723000D02*
D03*
X1547500D02*
D03*
X1742500Y650000D02*
D03*
X1723500D02*
D03*
D99*
X1713000Y789300D02*
D03*
X1742000Y677300D02*
D03*
D100*
X1713000Y814700D02*
D03*
X1649000Y789300D02*
D03*
Y814700D02*
D03*
X1678000Y702700D02*
D03*
Y677300D02*
D03*
X1742000Y702700D02*
D03*
D101*
X1649000Y723000D02*
D03*
X1595000D02*
D03*
D102*
X1472750Y622050D02*
D03*
X1906250Y693950D02*
D03*
D103*
X1472750Y609350D02*
D03*
Y596650D02*
D03*
Y583950D02*
D03*
X1527250Y622050D02*
D03*
Y609350D02*
D03*
X1527250Y596650D02*
D03*
X1527250Y583950D02*
D03*
X1851750Y732050D02*
D03*
Y719350D02*
D03*
Y706650D02*
D03*
Y693950D02*
D03*
X1906250Y732050D02*
D03*
Y719350D02*
D03*
Y706650D02*
D03*
D104*
X942000Y649000D02*
D03*
X922000Y639500D02*
D03*
Y658500D02*
D03*
X879000Y520000D02*
D03*
X899000Y529500D02*
D03*
Y510500D02*
D03*
D105*
X888000Y446000D02*
D03*
X897500Y426000D02*
D03*
X878500D02*
D03*
D106*
X1237000Y425000D02*
D03*
X1279000D02*
D03*
D107*
X1202000Y507750D02*
D03*
Y531250D02*
D03*
X2156750Y508750D02*
D03*
Y485250D02*
D03*
X1091000Y244250D02*
D03*
Y220750D02*
D03*
D108*
X1191000Y231000D02*
D03*
X1175000D02*
D03*
D109*
X1911500Y776000D02*
D03*
X1850500D02*
D03*
D110*
X2041500Y763000D02*
D03*
X2051000D02*
D03*
X2060500D02*
D03*
Y737000D02*
D03*
X2041500D02*
D03*
D111*
X1166250Y390000D02*
D03*
X1199750D02*
D03*
X1595250Y621000D02*
D03*
X1628750D02*
D03*
X1595250Y593000D02*
D03*
X1628750D02*
D03*
X1595250Y677000D02*
D03*
X1628750D02*
D03*
X1595250Y566000D02*
D03*
X1628750D02*
D03*
D112*
X1099500Y759000D02*
D03*
X1056500D02*
D03*
D113*
X973500Y760500D02*
D03*
D114*
X967000D02*
D03*
X960500D02*
D03*
X954000D02*
D03*
X947500D02*
D03*
X941000D02*
D03*
X934500D02*
D03*
X973500Y701500D02*
D03*
X967000D02*
D03*
X960500D02*
D03*
X954000D02*
D03*
X947500D02*
D03*
X941000D02*
D03*
X934500D02*
D03*
D115*
X905250Y561000D02*
D03*
X881750D02*
D03*
D116*
X1220000Y337900D02*
D03*
Y292100D02*
D03*
D117*
X1287000Y315000D02*
D03*
D118*
X992500Y560000D02*
D03*
X969500D02*
D03*
D119*
X1975000Y722000D02*
D03*
X1953000Y712500D02*
D03*
Y731500D02*
D03*
D120*
X1099000Y543000D02*
D03*
X924000Y203200D02*
D03*
D121*
X1036000Y520200D02*
D03*
Y565800D02*
D03*
X987000Y226000D02*
D03*
Y180400D02*
D03*
D122*
X992750Y495500D02*
D03*
Y520500D02*
D03*
X992000Y623500D02*
D03*
Y600500D02*
D03*
D123*
X963750Y508000D02*
D03*
D124*
X1099000Y716500D02*
D03*
Y673500D02*
D03*
D125*
X1282250Y677000D02*
D03*
X1189750D02*
D03*
D126*
X836500Y443000D02*
D03*
Y363000D02*
D03*
X791500Y443000D02*
D03*
Y363000D02*
D03*
D127*
X1030000Y226500D02*
D03*
Y193500D02*
D03*
D128*
X993750Y337000D02*
D03*
D129*
X987250D02*
D03*
X980750D02*
D03*
X974250D02*
D03*
X967750D02*
D03*
X961250D02*
D03*
X954750D02*
D03*
X948250D02*
D03*
X993750Y279000D02*
D03*
X987250D02*
D03*
X980750D02*
D03*
X974250D02*
D03*
X967750D02*
D03*
X961250D02*
D03*
X954750D02*
D03*
X948250D02*
D03*
D130*
X1154000Y572000D02*
D03*
Y542000D02*
D03*
D131*
X1307000Y474250D02*
D03*
Y507750D02*
D03*
D132*
X1392000Y644750D02*
D03*
Y737250D02*
D03*
D133*
X1594000Y462400D02*
D03*
Y444000D02*
D03*
D134*
X1633820Y453200D02*
D03*
D135*
X1113000Y938000D02*
D03*
X1367000D02*
D03*
X1810600Y939000D02*
D03*
X2064600D02*
D03*
X1728400Y200000D02*
D03*
X1474400D02*
D03*
D136*
X1263400Y901000D02*
D03*
X1238000D02*
D03*
X1961000Y898000D02*
D03*
X1935600D02*
D03*
X1578000Y241000D02*
D03*
X1603400D02*
D03*
D137*
X1212600Y901000D02*
D03*
X1910200Y898000D02*
D03*
X1628800Y241000D02*
D03*
D138*
X2119200Y128400D02*
D03*
Y103000D02*
D03*
X2093800Y128400D02*
D03*
Y103000D02*
D03*
X2068400Y128400D02*
D03*
Y103000D02*
D03*
X1966800Y128400D02*
D03*
X1992200Y103000D02*
D03*
Y128400D02*
D03*
X2017600Y103000D02*
D03*
Y128400D02*
D03*
X2043000Y103000D02*
D03*
Y128400D02*
D03*
X2301000Y441600D02*
D03*
Y467000D02*
D03*
Y492400D02*
D03*
Y517800D02*
D03*
Y543200D02*
D03*
X1715400Y428600D02*
D03*
X1690000D02*
D03*
X1715400Y454000D02*
D03*
X1690000D02*
D03*
X1715400Y479400D02*
D03*
X2303000Y351400D02*
D03*
Y326000D02*
D03*
D139*
X1966800Y103000D02*
D03*
D140*
X1873000Y611000D02*
D03*
X2050000Y651000D02*
D03*
X1577000Y280000D02*
D03*
X1547000Y776000D02*
D03*
X828000Y482000D02*
D03*
X1099000Y618000D02*
D03*
X1494000Y779000D02*
D03*
X1220000Y259000D02*
D03*
X1238000Y369000D02*
D03*
X1321000Y425000D02*
D03*
X1785000Y775000D02*
D03*
X1922000Y831000D02*
D03*
X2131000Y789000D02*
D03*
X2105750Y274750D02*
D03*
X1264000Y205000D02*
D03*
X1235000Y754000D02*
D03*
X1023500Y782500D02*
D03*
X1594000Y493000D02*
D03*
X1738000Y742000D02*
D03*
X1473000Y655000D02*
D03*
X909000Y733000D02*
D03*
X892000Y364000D02*
D03*
X1724000Y622000D02*
D03*
X2077000Y460000D02*
D03*
X1033000Y280000D02*
D03*
X1035000Y337000D02*
D03*
D141*
X2301000Y416200D02*
D03*
X1690000Y479400D02*
D03*
X2303000Y300600D02*
D03*
D142*
X792000Y204200D02*
D03*
D143*
Y255000D02*
D03*
Y305800D02*
D03*
D144*
X1266000Y545400D02*
D03*
D145*
Y520000D02*
D03*
Y494600D02*
D03*
D146*
X834000Y964000D02*
D03*
X2239000D02*
D03*
Y164000D02*
D03*
X1014000Y134000D02*
D03*
D147*
X2040000Y380000D02*
D03*
X2051000D02*
D03*
X2062000D02*
D03*
X2040000Y369000D02*
D03*
X2051000D02*
D03*
X2062000D02*
D03*
X2040000Y358000D02*
D03*
X2051000D02*
D03*
X2062000D02*
D03*
M02*
