M48
;Layer_Color=9474304
;FILE_FORMAT=4:4
METRIC,LZ
;TYPE=PLATED
T1F00S00C0.5000
T2F00S00C0.7000
T3F00S00C1.0000
T4F00S00C1.1000
T5F00S00C1.6000
T6F00S00C2.5000
%
T01
X01475Y00336
Y00363
X01869341Y00367018
X01878325Y00375175
X01899843Y00352767
X019085Y0032825
X0190575Y002585
X01935Y0024825
X0191475Y002235
X01875Y00189
X0188Y00178
X01888Y00169
X01874Y0015975
X01882Y0015
X01844
X0185275Y0015975
Y00178
X01799Y00189
X017965Y00169
X0181Y002585
Y002715
Y0028425
X01875
Y002715
X01935Y0016
X01915Y00111
X020185Y00167
X0203125Y001805
X0204075Y0019
X02040777Y00239056
X0203125Y002465
X020185Y0024075
X02051Y002465
X02105603Y002325
X021225Y0024
X02135
X021225Y00268
X0214875Y002685
X02158Y00277
X02167Y002685
X02168Y0030025
X02172Y00326
Y00339
Y0035325
X0221475Y003535
X02224Y00339
X02292Y003945
X02062Y0038
X02051
X0204
Y00369
X02051
X02062
Y00358
X02051
X0204
X0214875Y001655
X02167
X02158Y00147
X02135
X02172Y004416
Y0045975
X02099Y00446
X02057
X02042Y004905
X0203675Y0052275
X02045Y00532
X02014
X02005Y00523
X01996Y00532
Y00566
Y004905
X02077937Y00541
X02131375Y00541375
X02160105Y00542276
X02177Y00563278
X021795Y005755
X021315Y005975
X0229Y005755
X0228Y0056425
X0221275Y0040325
X02224Y00789
X02246
X01983847Y00566028
X01971Y00553
X01954Y00566
X01941Y00553
X0190025
X0188525
Y00515
X0190025Y00524
X00898Y00399
X00878414Y00398
X00877Y00733
X02224Y008015
X0224625Y0080125
T02
X007875Y0028
X008225
X00877Y00334
X00919Y00392
X00805Y00385
X011375Y0035
Y0028
X0113625Y002515
X01173Y00187
X0117125Y00093
X0113625
X010675Y0014
X01043Y00175
X0126Y00175
X01295
X0133
X01365
X014
X0137875Y002265
X01435Y00245
X0147
X014175Y0028
X014Y00315
X01365
X0133
X0134625Y00093
X0131125
X0127625
X0124125
X0120625
X0138125
X01505Y00175
X0154
X01505Y00385
X01616Y00383
X017325Y0035
X0179875Y0035
Y00385
X017325Y0028
X0175Y00245
X017675Y0021
X0192075Y00322
X019585Y0033225
X0208525Y00327
X0217Y00105
X02205
X0224
X02275
X0231
X022925Y0014
X0231Y00175
X022925Y0021
X0231Y00245
X0219775Y004165
X0214325Y0047025
X021525Y0063
X021175
X020825
X020635Y005995
X01998Y006065
X0199325Y00745
X02108Y00758
X021175Y007
X0217Y00735
X02205
X0200175Y0041725
X019735Y0044175
X01932Y00427
X0179875Y0042
Y00455
Y0049
Y00525
Y0056
Y00595
X018025Y0063
X0179875Y0068175
X0176025Y0070275
X016975Y007
X0168Y00735
X016625Y0063
X01645Y00595
X0164925Y005665
X016975Y0056
X017325
X01715Y00525
X0168
Y00595
X017325Y0042
X01921Y00593
X01974Y006065
X0187575Y006795
X01922Y0074425
X01936Y00761
Y00776
Y00791
X01567Y00766
X014525Y0077
X01459Y0074
X0133Y00735
X01295
X013125Y007
X012775
X013475
X0133Y00665
X01365
X013475Y0063
X01365Y00595
X014
X014175Y0063
X01551Y00589
X01526Y005435
X014875Y0042
X013475Y0049
X0133Y00525
X013125Y0077
X0102375Y00697
X0094Y00675
X0090775Y0063975
X00899Y00542
X008745Y0054225
X0091275Y0042575
X0101Y00428
X00992Y00476
X0112Y00455
X011375Y0042
X01165Y00425
X0094Y00787
X008575Y0077
X008225
X00805Y00735
X0084
X008225Y007
X00805Y00665
X0077
X007875Y0063
X0077Y00595
Y00525
X007915Y004125
X007875Y007
X0077Y00735
X007875Y0077
X0077Y00805
X007875Y0084
X0077Y00875
X007875Y0091
X0077Y00945
Y01015
X00805
X0084
X00875
X0091
X00945
X0098
X01015
X0105
X01085
X0112
X01155
X0119
Y00945
X01155
X01185Y00867
X011375Y0084
X01085Y00875
X0105
X010675Y0091
X01015Y00945
X0098
X00945
X0091
X009275Y0091
X008925
X008575
X008225
X00805Y00875
X0084
X00875
X0091
X00945
X009625Y0084
X009275
X008925
X008575
X008225
X00805Y00805
X0084
X00875
X008925Y0098
X009275
X009625
X009975
X010325
X009625Y0091
X010325Y0084
X013125
X01297Y0087
X01295Y00805
X0133
X0147
X014875Y0084
X014525
X01435Y00875
X0147
X01505
X015225Y0091
X014875
X014525
X014175
X01435Y00945
X0147
X01505
X0154
X0154Y01015
X01505
X0147
X01435
X014
X01365
X0133
X01295
X0126
X01225
X01575
X0161
X01645
X0168
X01715
X0175
X01785
X0182Y01015
X01855
X0189
X01925
X0196
X017675Y0091
X017325
X016975
X016625
X0168Y00805
X01732Y00814
X020475Y0084
X020825
X021175
X021525
X02135Y00875
X021
X02065
X0203
X0203Y01015
X01995
X02065
X021
X02135Y01015
X0217
X02205
X0224
X02275
X0231
X022925Y0098
X0231Y00945
X022925Y0091
X022575
X02275Y00875
X0231
X021875Y0098
X0210825Y0080575
T03
X01266Y004946
Y0052
Y005454
T04
X00892Y00364
X01035Y00337
X01033Y0028
X0122Y00259
X01264Y00205
X01238Y00369
X01577Y0028
X01578Y00241
X016034
X016288
X019668Y001284
Y00103
X019922
Y001284
X020176
Y00103
X02043
X020684
X020938
X021192
Y001284
X020938
X020684
X02043
X0210575Y0027475
X02303Y003006
Y00326
Y003514
X02301Y004162
Y004416
Y00467
Y004924
Y005178
Y005432
X02077Y0046
X0205Y00651
X02131Y00789
X01785Y00775
X01738Y00742
X01724Y00622
X017154Y004794
Y00454
Y004286
X0169
Y00454
Y004794
X01594Y00493
X01873Y00611
X01473Y00655
X01494Y00779
X01547Y00776
X01235Y00754
X01321Y00425
X01099Y00618
X010235Y007825
X00909Y00733
X00828Y00482
X012126Y00901
X01238
X012634
X019102Y00898
X019356
X01961
X01922Y00831
T05
X00792Y002042
Y00255
Y003058
T06
X014744Y002
X017284
X01113Y00938
X01367
X018106Y00939
X020646
M30
