G04 Layer_Physical_Order=2*
G04 Layer_Color=16711680*
%FSLAX44Y44*%
%MOMM*%
G71*
G01*
G75*
%ADD62C,0.6000*%
%ADD64C,0.5000*%
%ADD66C,0.3000*%
%ADD67C,0.4000*%
%ADD73C,6.0000*%
%ADD74C,3.7000*%
%ADD75C,2.0000*%
%ADD76R,2.0000X2.0000*%
%ADD77C,1.8000*%
%ADD78R,1.8000X1.8000*%
%ADD79C,1.7000*%
%ADD80R,2.0000X2.0000*%
%ADD81C,1.6500*%
%ADD82R,1.6500X1.6500*%
%ADD83C,2.6000*%
%ADD84R,2.6000X2.6000*%
%ADD85R,1.6500X1.6500*%
%ADD86C,1.1000*%
%ADD87C,0.9000*%
%ADD88C,0.7000*%
G36*
X1839914Y460086D02*
X260086D01*
Y1439914D01*
X1839914D01*
Y460086D01*
D02*
G37*
%LPC*%
G36*
X1810000Y744914D02*
X1807403Y744658D01*
X1804905Y743901D01*
X1802603Y742670D01*
X1800585Y741014D01*
X1798930Y738997D01*
X1798480Y738156D01*
X1699444D01*
X1699275Y738375D01*
X1697291Y739898D01*
X1694980Y740855D01*
X1692500Y741182D01*
X1690020Y740855D01*
X1687709Y739898D01*
X1685724Y738375D01*
X1684202Y736391D01*
X1683244Y734080D01*
X1682972Y732012D01*
X1681020Y731756D01*
X1678709Y730798D01*
X1676725Y729276D01*
X1675202Y727291D01*
X1674245Y724980D01*
X1673918Y722500D01*
X1674245Y720020D01*
X1675202Y717709D01*
X1676725Y715725D01*
X1678709Y714202D01*
X1681020Y713244D01*
X1683500Y712918D01*
X1685980Y713244D01*
X1688291Y714202D01*
X1690236Y715694D01*
X1693992D01*
X1695097Y712999D01*
X1695073Y712694D01*
X1693225Y711275D01*
X1691702Y709291D01*
X1690744Y706980D01*
X1690486Y705014D01*
X1688520Y704755D01*
X1686209Y703798D01*
X1685752Y703448D01*
X1685710Y703430D01*
X1684355Y702385D01*
X1684335Y702361D01*
X1684225Y702275D01*
X1682702Y700291D01*
X1681745Y697980D01*
X1681418Y695500D01*
X1681745Y693020D01*
X1682702Y690709D01*
X1684225Y688725D01*
X1686209Y687202D01*
X1688520Y686245D01*
X1691000Y685918D01*
X1691530Y685988D01*
X1737702Y640006D01*
X1737668Y639750D01*
X1737995Y637270D01*
X1738952Y634959D01*
X1740475Y632975D01*
X1742459Y631452D01*
X1744770Y630494D01*
X1747250Y630168D01*
X1749730Y630494D01*
X1752041Y631452D01*
X1754026Y632975D01*
X1755548Y634959D01*
X1756505Y637270D01*
X1756832Y639750D01*
X1756505Y642230D01*
X1755548Y644541D01*
X1755440Y644681D01*
X1754171Y646687D01*
X1755905Y648605D01*
X1757428Y650589D01*
X1758385Y652900D01*
X1758712Y655380D01*
X1758385Y657860D01*
X1757428Y660171D01*
X1756291Y662451D01*
X1758123Y663858D01*
X1758275Y663975D01*
X1759798Y665959D01*
X1760755Y668270D01*
X1761082Y670750D01*
X1760755Y673230D01*
X1759798Y675541D01*
X1758275Y677525D01*
X1756291Y679048D01*
X1753980Y680005D01*
X1751500Y680332D01*
X1751226Y680296D01*
X1718828Y712694D01*
X1718993Y713935D01*
X1720535Y715694D01*
X1791234D01*
X1796750Y710178D01*
Y692950D01*
X1823250D01*
Y719450D01*
X1820810D01*
X1819826Y721379D01*
X1819632Y722450D01*
X1821070Y724203D01*
X1822301Y726505D01*
X1823058Y729003D01*
X1823314Y731600D01*
X1823058Y734197D01*
X1822301Y736695D01*
X1821070Y738997D01*
X1819415Y741014D01*
X1817397Y742670D01*
X1815095Y743901D01*
X1812598Y744658D01*
X1810000Y744914D01*
D02*
G37*
G36*
X976000Y816863D02*
X973452Y816612D01*
X971001Y815869D01*
X968743Y814661D01*
X966763Y813037D01*
X965139Y811057D01*
X963932Y808799D01*
X963188Y806348D01*
X962937Y803800D01*
X963188Y801252D01*
X963932Y798801D01*
X965139Y796543D01*
X966763Y794563D01*
X968743Y792939D01*
X969000Y792801D01*
Y789399D01*
X968743Y789261D01*
X966763Y787637D01*
X965139Y785657D01*
X963932Y783399D01*
X963188Y780948D01*
X962937Y778400D01*
X963188Y775852D01*
X963932Y773401D01*
X965139Y771143D01*
X966763Y769163D01*
X966962Y769000D01*
X965889Y766000D01*
X963000D01*
Y740000D01*
X989000D01*
Y766000D01*
X986112D01*
X985038Y769000D01*
X985237Y769163D01*
X986861Y771143D01*
X988068Y773401D01*
X988812Y775852D01*
X989063Y778400D01*
X988812Y780948D01*
X988068Y783399D01*
X986861Y785657D01*
X985237Y787637D01*
X983257Y789261D01*
X983000Y789399D01*
Y792801D01*
X983257Y792939D01*
X985237Y794563D01*
X986861Y796543D01*
X988068Y798801D01*
X988812Y801252D01*
X989063Y803800D01*
X988812Y806348D01*
X988068Y808799D01*
X986861Y811057D01*
X985237Y813037D01*
X983257Y814661D01*
X980999Y815869D01*
X978548Y816612D01*
X976000Y816863D01*
D02*
G37*
G36*
X387000Y788591D02*
X384259Y788230D01*
X381705Y787172D01*
X379511Y785489D01*
X377828Y783295D01*
X376770Y780741D01*
X376409Y778000D01*
X376770Y775259D01*
X377828Y772705D01*
X379511Y770511D01*
X381705Y768828D01*
X384259Y767770D01*
X384573Y767729D01*
X394692Y757610D01*
X394435Y755000D01*
X394695Y752354D01*
X395467Y749809D01*
X396721Y747464D01*
X398408Y745408D01*
X400463Y743721D01*
X402809Y742467D01*
X405354Y741695D01*
X408000Y741435D01*
X410646Y741695D01*
X413191Y742467D01*
X415536Y743721D01*
X417592Y745408D01*
X419279Y747464D01*
X420533Y749809D01*
X421305Y752354D01*
X421565Y755000D01*
X421305Y757646D01*
X420533Y760191D01*
X419279Y762536D01*
X417592Y764592D01*
X415536Y766279D01*
X413191Y767533D01*
X410646Y768305D01*
X408000Y768565D01*
X405390Y768308D01*
X397370Y776328D01*
X397591Y778000D01*
X397230Y780741D01*
X396172Y783295D01*
X394489Y785489D01*
X392295Y787172D01*
X389741Y788230D01*
X387000Y788591D01*
D02*
G37*
G36*
X540000Y755565D02*
X537354Y755305D01*
X534809Y754533D01*
X532463Y753279D01*
X530408Y751592D01*
X528721Y749537D01*
X527467Y747191D01*
X526695Y744646D01*
X526435Y742000D01*
X526695Y739353D01*
X527467Y736809D01*
X528721Y734464D01*
X530408Y732408D01*
X532463Y730721D01*
X534809Y729467D01*
X537354Y728695D01*
X540000Y728435D01*
X542646Y728695D01*
X545191Y729467D01*
X547537Y730721D01*
X549592Y732408D01*
X551279Y734464D01*
X552533Y736809D01*
X553305Y739353D01*
X553565Y742000D01*
X553305Y744646D01*
X552533Y747191D01*
X551279Y749537D01*
X549592Y751592D01*
X547537Y753279D01*
X545191Y754533D01*
X542646Y755305D01*
X540000Y755565D01*
D02*
G37*
G36*
X1149000Y695565D02*
X1146354Y695305D01*
X1143809Y694533D01*
X1141463Y693279D01*
X1139408Y691592D01*
X1137721Y689537D01*
X1136467Y687191D01*
X1135695Y684647D01*
X1135435Y682000D01*
X1135695Y679354D01*
X1136467Y676809D01*
X1137721Y674464D01*
X1139408Y672408D01*
X1141463Y670721D01*
X1143809Y669467D01*
X1146354Y668695D01*
X1149000Y668435D01*
X1151646Y668695D01*
X1154191Y669467D01*
X1156536Y670721D01*
X1158592Y672408D01*
X1160279Y674464D01*
X1161533Y676809D01*
X1162305Y679354D01*
X1162565Y682000D01*
X1162305Y684647D01*
X1161533Y687191D01*
X1160279Y689537D01*
X1158592Y691592D01*
X1156536Y693279D01*
X1154191Y694533D01*
X1151646Y695305D01*
X1149000Y695565D01*
D02*
G37*
G36*
X540000Y697565D02*
X537354Y697305D01*
X534809Y696533D01*
X532463Y695279D01*
X530408Y693592D01*
X528721Y691536D01*
X527467Y689191D01*
X526695Y686646D01*
X526435Y684000D01*
X526695Y681354D01*
X527467Y678809D01*
X528721Y676463D01*
X530408Y674408D01*
X532463Y672721D01*
X534809Y671467D01*
X537354Y670695D01*
X540000Y670435D01*
X542646Y670695D01*
X545191Y671467D01*
X547537Y672721D01*
X549592Y674408D01*
X551279Y676463D01*
X552533Y678809D01*
X553305Y681354D01*
X553565Y684000D01*
X553305Y686646D01*
X552533Y689191D01*
X551279Y691536D01*
X549592Y693592D01*
X547537Y695279D01*
X545191Y696533D01*
X542646Y697305D01*
X540000Y697565D01*
D02*
G37*
G36*
X1408500Y807582D02*
X1406020Y807255D01*
X1403709Y806298D01*
X1401725Y804775D01*
X1400202Y802791D01*
X1399245Y800480D01*
X1398750Y797582D01*
X1396270Y797255D01*
X1393959Y796298D01*
X1391975Y794775D01*
X1390452Y792791D01*
X1389495Y790480D01*
X1389168Y788000D01*
X1388750Y787582D01*
X1386270Y787255D01*
X1383959Y786298D01*
X1381975Y784775D01*
X1380452Y782791D01*
X1379494Y780480D01*
X1379168Y778000D01*
X1379494Y775520D01*
X1380452Y773209D01*
X1381975Y771225D01*
X1382194Y771056D01*
Y690584D01*
X1381202Y689291D01*
X1380244Y686980D01*
X1379918Y684500D01*
X1380244Y682020D01*
X1381202Y679709D01*
X1381319Y679556D01*
X1379840Y676556D01*
X1328694D01*
X1328526Y676776D01*
X1326541Y678298D01*
X1324230Y679256D01*
X1321750Y679582D01*
X1319270Y679256D01*
X1316959Y678298D01*
X1314975Y676776D01*
X1313452Y674791D01*
X1312495Y672480D01*
X1312168Y670000D01*
X1312495Y667520D01*
X1313452Y665209D01*
X1314975Y663225D01*
X1315931Y662491D01*
X1315743Y659346D01*
X1315624Y659117D01*
X1315459Y659048D01*
X1313474Y657525D01*
X1311952Y655541D01*
X1310995Y653230D01*
X1310668Y650750D01*
X1310995Y648270D01*
X1311952Y645959D01*
X1313474Y643975D01*
X1315459Y642452D01*
X1317770Y641495D01*
X1320250Y641168D01*
X1322730Y641495D01*
X1325041Y642452D01*
X1327025Y643975D01*
X1327386Y644444D01*
X1375306D01*
X1375475Y644224D01*
X1377459Y642702D01*
X1379770Y641745D01*
X1382250Y641418D01*
X1384730Y641745D01*
X1387041Y642702D01*
X1389025Y644224D01*
X1390548Y646209D01*
X1391505Y648520D01*
X1391832Y651000D01*
X1391505Y653480D01*
X1390548Y655791D01*
X1389025Y657775D01*
X1387041Y659298D01*
X1384730Y660255D01*
X1383595Y660405D01*
X1383904Y663390D01*
X1384012Y663444D01*
X1392806D01*
X1392975Y663225D01*
X1394959Y661702D01*
X1397270Y660745D01*
X1399750Y660418D01*
X1402230Y660745D01*
X1404541Y661702D01*
X1406526Y663225D01*
X1408048Y665209D01*
X1409005Y667520D01*
X1409332Y670000D01*
X1409005Y672480D01*
X1408048Y674791D01*
X1406526Y676776D01*
X1404541Y678298D01*
X1402230Y679256D01*
X1400928Y679427D01*
X1399097Y681612D01*
X1398817Y682485D01*
X1399082Y684500D01*
X1398755Y686980D01*
X1397798Y689291D01*
X1396723Y690692D01*
X1397528Y692759D01*
X1398058Y693386D01*
X1398306Y693509D01*
X1399000Y693418D01*
X1401480Y693745D01*
X1403791Y694702D01*
X1405775Y696225D01*
X1407298Y698209D01*
X1408255Y700520D01*
X1408510Y702450D01*
X1408750Y702418D01*
X1411230Y702745D01*
X1413541Y703702D01*
X1415525Y705225D01*
X1417048Y707209D01*
X1418005Y709520D01*
X1418332Y712000D01*
X1418005Y714480D01*
X1417048Y716791D01*
X1415525Y718775D01*
X1415056Y719136D01*
Y745556D01*
X1415276Y745724D01*
X1416798Y747709D01*
X1417755Y750020D01*
X1418082Y752500D01*
X1417755Y754980D01*
X1416798Y757291D01*
X1415276Y759275D01*
X1415056Y759444D01*
Y791056D01*
X1415276Y791225D01*
X1416798Y793209D01*
X1417755Y795520D01*
X1418082Y798000D01*
X1417755Y800480D01*
X1416798Y802791D01*
X1415276Y804775D01*
X1413291Y806298D01*
X1410980Y807255D01*
X1408500Y807582D01*
D02*
G37*
G36*
X1810000Y853714D02*
X1807403Y853458D01*
X1804905Y852701D01*
X1802603Y851470D01*
X1800585Y849815D01*
X1798930Y847797D01*
X1798534Y847056D01*
X1702444D01*
X1702276Y847275D01*
X1700291Y848798D01*
X1697980Y849755D01*
X1695500Y850082D01*
X1693020Y849755D01*
X1690709Y848798D01*
X1688725Y847275D01*
X1687202Y845291D01*
X1686245Y842980D01*
X1685918Y840500D01*
X1686245Y838020D01*
X1687202Y835709D01*
X1688725Y833725D01*
X1690709Y832202D01*
X1693020Y831245D01*
X1695500Y830918D01*
X1697980Y831245D01*
X1700291Y832202D01*
X1702276Y833725D01*
X1702444Y833944D01*
X1798427D01*
X1798930Y833003D01*
X1800368Y831250D01*
X1800174Y830179D01*
X1799190Y828250D01*
X1796750D01*
Y823031D01*
X1736006Y822859D01*
X1734295Y824172D01*
X1731741Y825230D01*
X1729000Y825591D01*
X1726259Y825230D01*
X1723705Y824172D01*
X1721511Y822489D01*
X1719828Y820295D01*
X1718770Y817741D01*
X1718409Y815000D01*
X1718770Y812259D01*
X1719828Y809705D01*
X1721511Y807511D01*
X1723705Y805828D01*
X1726259Y804770D01*
X1729000Y804409D01*
X1731741Y804770D01*
X1734295Y805828D01*
X1735457Y806720D01*
X1794626Y806887D01*
X1796750Y804769D01*
Y801750D01*
X1823250D01*
Y828250D01*
X1820810D01*
X1819826Y830179D01*
X1819632Y831250D01*
X1821070Y833003D01*
X1822301Y835305D01*
X1823058Y837803D01*
X1823314Y840400D01*
X1823058Y842998D01*
X1822301Y845495D01*
X1821070Y847797D01*
X1819415Y849815D01*
X1817397Y851470D01*
X1815095Y852701D01*
X1812598Y853458D01*
X1810000Y853714D01*
D02*
G37*
G36*
X1592750Y949582D02*
X1590270Y949256D01*
X1587959Y948298D01*
X1585975Y946775D01*
X1584452Y944791D01*
X1583495Y942480D01*
X1583168Y940000D01*
X1583495Y937520D01*
X1584452Y935209D01*
X1585975Y933224D01*
X1586194Y933056D01*
Y879553D01*
X1585213Y879029D01*
X1583158Y877342D01*
X1581471Y875286D01*
X1580217Y872941D01*
X1579445Y870396D01*
X1579185Y867750D01*
X1579445Y865104D01*
X1580217Y862559D01*
X1581471Y860213D01*
X1583158Y858158D01*
X1585213Y856471D01*
X1587559Y855217D01*
X1590104Y854445D01*
X1592750Y854185D01*
X1595397Y854445D01*
X1597941Y855217D01*
X1600287Y856471D01*
X1602342Y858158D01*
X1604029Y860213D01*
X1605283Y862559D01*
X1606055Y865104D01*
X1606315Y867750D01*
X1606055Y870396D01*
X1605283Y872941D01*
X1604029Y875286D01*
X1602342Y877342D01*
X1600287Y879029D01*
X1599306Y879553D01*
Y933056D01*
X1599525Y933224D01*
X1601048Y935209D01*
X1602005Y937520D01*
X1602332Y940000D01*
X1602005Y942480D01*
X1601048Y944791D01*
X1599525Y946775D01*
X1597541Y948298D01*
X1595230Y949256D01*
X1592750Y949582D01*
D02*
G37*
G36*
X344000Y879565D02*
X341353Y879305D01*
X338809Y878533D01*
X336464Y877279D01*
X334408Y875592D01*
X332721Y873537D01*
X331467Y871191D01*
X330695Y868646D01*
X330435Y866000D01*
X330695Y863354D01*
X331467Y860809D01*
X332721Y858464D01*
X334408Y856408D01*
X336464Y854721D01*
X338809Y853467D01*
X341353Y852695D01*
X344000Y852435D01*
X346646Y852695D01*
X349191Y853467D01*
X351536Y854721D01*
X353592Y856408D01*
X355256Y858435D01*
X376610D01*
X378705Y856828D01*
X381259Y855770D01*
X384000Y855409D01*
X386741Y855770D01*
X389295Y856828D01*
X391489Y858511D01*
X393172Y860705D01*
X394230Y863259D01*
X394591Y866000D01*
X394230Y868741D01*
X393172Y871295D01*
X391489Y873489D01*
X389295Y875172D01*
X386741Y876230D01*
X384000Y876591D01*
X381259Y876230D01*
X378705Y875172D01*
X376610Y873565D01*
X355256D01*
X353592Y875592D01*
X351536Y877279D01*
X349191Y878533D01*
X346646Y879305D01*
X344000Y879565D01*
D02*
G37*
G36*
X804000Y834565D02*
X801354Y834305D01*
X798809Y833533D01*
X796463Y832279D01*
X794408Y830592D01*
X792721Y828537D01*
X791467Y826191D01*
X790695Y823646D01*
X790435Y821000D01*
X790695Y818354D01*
X791467Y815809D01*
X792721Y813464D01*
X794408Y811408D01*
X796463Y809721D01*
X798809Y808467D01*
X801354Y807695D01*
X804000Y807435D01*
X806646Y807695D01*
X809191Y808467D01*
X811536Y809721D01*
X813592Y811408D01*
X815279Y813464D01*
X816533Y815809D01*
X817305Y818354D01*
X817565Y821000D01*
X817305Y823646D01*
X816533Y826191D01*
X815279Y828537D01*
X813592Y830592D01*
X811536Y832279D01*
X809191Y833533D01*
X806646Y834305D01*
X804000Y834565D01*
D02*
G37*
G36*
X1082000Y778565D02*
X1079353Y778305D01*
X1076809Y777533D01*
X1074464Y776279D01*
X1072408Y774592D01*
X1070721Y772536D01*
X1069467Y770191D01*
X1068695Y767646D01*
X1068435Y765000D01*
X1068695Y762354D01*
X1069467Y759809D01*
X1070721Y757464D01*
X1072408Y755408D01*
X1074464Y753721D01*
X1076809Y752467D01*
X1079353Y751695D01*
X1082000Y751435D01*
X1084646Y751695D01*
X1087191Y752467D01*
X1089537Y753721D01*
X1091592Y755408D01*
X1093279Y757464D01*
X1094533Y759809D01*
X1095305Y762354D01*
X1095565Y765000D01*
X1095305Y767646D01*
X1094533Y770191D01*
X1093279Y772536D01*
X1091592Y774592D01*
X1089537Y776279D01*
X1087191Y777533D01*
X1084646Y778305D01*
X1082000Y778565D01*
D02*
G37*
G36*
X726000Y782565D02*
X723354Y782305D01*
X720809Y781533D01*
X718464Y780279D01*
X716408Y778592D01*
X714721Y776536D01*
X713467Y774191D01*
X712695Y771646D01*
X712435Y769000D01*
X712695Y766354D01*
X713467Y763809D01*
X714721Y761463D01*
X716408Y759408D01*
X718464Y757721D01*
X720809Y756467D01*
X723354Y755695D01*
X726000Y755435D01*
X728646Y755695D01*
X731191Y756467D01*
X733537Y757721D01*
X735592Y759408D01*
X737279Y761463D01*
X738533Y763809D01*
X739305Y766354D01*
X739565Y769000D01*
X739305Y771646D01*
X738533Y774191D01*
X737279Y776536D01*
X735592Y778592D01*
X733537Y780279D01*
X731191Y781533D01*
X728646Y782305D01*
X726000Y782565D01*
D02*
G37*
G36*
X1767000Y803082D02*
X1764520Y802755D01*
X1762209Y801798D01*
X1760224Y800275D01*
X1760056Y800056D01*
X1702444D01*
X1702276Y800275D01*
X1700291Y801798D01*
X1697980Y802755D01*
X1695500Y803082D01*
X1693020Y802755D01*
X1690709Y801798D01*
X1688725Y800275D01*
X1687202Y798291D01*
X1686245Y795980D01*
X1685918Y793500D01*
X1686245Y791020D01*
X1687202Y788709D01*
X1688705Y786750D01*
X1687202Y784791D01*
X1686245Y782480D01*
X1685918Y780000D01*
X1686245Y777520D01*
X1687202Y775209D01*
X1688725Y773224D01*
X1690709Y771702D01*
X1693020Y770744D01*
X1695500Y770418D01*
X1697980Y770744D01*
X1700291Y771702D01*
X1702276Y773224D01*
X1702444Y773444D01*
X1770056D01*
X1770225Y773224D01*
X1772209Y771702D01*
X1774520Y770744D01*
X1777000Y770418D01*
X1779480Y770744D01*
X1781791Y771702D01*
X1783775Y773224D01*
X1785298Y775209D01*
X1786255Y777520D01*
X1786582Y780000D01*
X1786255Y782480D01*
X1785298Y784791D01*
X1783775Y786775D01*
X1781791Y788298D01*
X1779480Y789255D01*
X1778808Y789344D01*
X1776801Y790662D01*
X1776455Y792536D01*
X1776582Y793500D01*
X1776255Y795980D01*
X1775298Y798291D01*
X1773775Y800275D01*
X1771791Y801798D01*
X1769480Y802755D01*
X1767000Y803082D01*
D02*
G37*
G36*
X1553300Y539814D02*
X1550703Y539558D01*
X1548205Y538801D01*
X1545903Y537570D01*
X1543885Y535914D01*
X1542230Y533897D01*
X1538970D01*
X1537314Y535914D01*
X1535297Y537570D01*
X1532995Y538801D01*
X1530497Y539558D01*
X1527900Y539814D01*
X1525302Y539558D01*
X1522805Y538801D01*
X1520503Y537570D01*
X1518486Y535914D01*
X1516830Y533897D01*
X1513570D01*
X1511915Y535914D01*
X1509897Y537570D01*
X1507595Y538801D01*
X1505097Y539558D01*
X1502500Y539814D01*
X1499902Y539558D01*
X1497405Y538801D01*
X1495103Y537570D01*
X1493085Y535914D01*
X1491430Y533897D01*
X1490199Y531595D01*
X1489442Y529097D01*
X1489186Y526500D01*
X1489442Y523903D01*
X1490199Y521405D01*
X1491430Y519103D01*
X1492868Y517350D01*
X1492674Y516279D01*
X1491690Y514350D01*
X1489250D01*
Y487850D01*
X1515750D01*
Y490290D01*
X1517679Y491274D01*
X1518750Y491469D01*
X1520503Y490030D01*
X1522805Y488799D01*
X1525302Y488042D01*
X1527900Y487786D01*
X1530497Y488042D01*
X1532995Y488799D01*
X1535297Y490030D01*
X1537314Y491685D01*
X1538970Y493703D01*
X1542230D01*
X1543885Y491685D01*
X1545903Y490030D01*
X1548205Y488799D01*
X1550703Y488042D01*
X1553300Y487786D01*
X1555897Y488042D01*
X1558395Y488799D01*
X1560697Y490030D01*
X1562715Y491685D01*
X1564370Y493703D01*
X1565601Y496005D01*
X1566358Y498503D01*
X1566614Y501100D01*
X1566358Y503697D01*
X1565601Y506195D01*
X1564370Y508497D01*
X1562715Y510514D01*
X1560697Y512170D01*
Y515430D01*
X1562715Y517085D01*
X1564370Y519103D01*
X1565601Y521405D01*
X1566358Y523903D01*
X1566614Y526500D01*
X1566358Y529097D01*
X1565601Y531595D01*
X1564370Y533897D01*
X1562715Y535914D01*
X1560697Y537570D01*
X1558395Y538801D01*
X1555897Y539558D01*
X1553300Y539814D01*
D02*
G37*
G36*
X1654900D02*
X1652303Y539558D01*
X1649805Y538801D01*
X1647503Y537570D01*
X1645486Y535914D01*
X1643830Y533897D01*
X1640570D01*
X1638914Y535914D01*
X1636897Y537570D01*
X1634595Y538801D01*
X1632097Y539558D01*
X1629500Y539814D01*
X1626902Y539558D01*
X1624405Y538801D01*
X1622103Y537570D01*
X1620085Y535914D01*
X1618430Y533897D01*
X1617199Y531595D01*
X1616442Y529097D01*
X1616186Y526500D01*
X1616442Y523903D01*
X1617199Y521405D01*
X1618430Y519103D01*
X1620085Y517085D01*
X1622103Y515430D01*
Y512170D01*
X1620085Y510514D01*
X1618430Y508497D01*
X1617199Y506195D01*
X1616442Y503697D01*
X1616186Y501100D01*
X1616442Y498503D01*
X1617199Y496005D01*
X1618430Y493703D01*
X1620085Y491685D01*
X1622103Y490030D01*
X1624405Y488799D01*
X1626902Y488042D01*
X1629500Y487786D01*
X1632097Y488042D01*
X1634595Y488799D01*
X1636897Y490030D01*
X1638914Y491685D01*
X1640570Y493703D01*
X1643830D01*
X1645486Y491685D01*
X1647503Y490030D01*
X1649805Y488799D01*
X1652303Y488042D01*
X1654900Y487786D01*
X1657497Y488042D01*
X1659995Y488799D01*
X1662297Y490030D01*
X1664315Y491685D01*
X1665970Y493703D01*
X1667201Y496005D01*
X1667958Y498503D01*
X1668214Y501100D01*
X1667958Y503697D01*
X1667201Y506195D01*
X1665970Y508497D01*
X1664315Y510514D01*
X1662297Y512170D01*
Y515430D01*
X1664315Y517085D01*
X1665970Y519103D01*
X1667201Y521405D01*
X1667958Y523903D01*
X1668214Y526500D01*
X1667958Y529097D01*
X1667201Y531595D01*
X1665970Y533897D01*
X1664315Y535914D01*
X1662297Y537570D01*
X1659995Y538801D01*
X1657497Y539558D01*
X1654900Y539814D01*
D02*
G37*
G36*
X338000Y617200D02*
X302000D01*
Y581200D01*
X338000D01*
Y617200D01*
D02*
G37*
G36*
X913000Y606582D02*
X910520Y606255D01*
X908209Y605298D01*
X906225Y603775D01*
X904702Y601791D01*
X903745Y599480D01*
X903418Y597000D01*
X903745Y594520D01*
X904702Y592209D01*
X905940Y590596D01*
Y542154D01*
X904702Y540541D01*
X903745Y538230D01*
X903418Y535750D01*
X903745Y533270D01*
X904702Y530959D01*
X906225Y528975D01*
X908209Y527452D01*
X910520Y526495D01*
X913000Y526168D01*
X915480Y526495D01*
X917791Y527452D01*
X919775Y528975D01*
X921298Y530959D01*
X922255Y533270D01*
X922582Y535750D01*
X922255Y538230D01*
X921298Y540541D01*
X920060Y542154D01*
Y590596D01*
X921298Y592209D01*
X922255Y594520D01*
X922582Y597000D01*
X922255Y599480D01*
X921298Y601791D01*
X919775Y603775D01*
X917791Y605298D01*
X915480Y606255D01*
X913000Y606582D01*
D02*
G37*
G36*
X530000Y565075D02*
X525422Y564775D01*
X520922Y563880D01*
X516577Y562405D01*
X512463Y560376D01*
X508648Y557827D01*
X505198Y554802D01*
X502173Y551352D01*
X499624Y547537D01*
X497595Y543423D01*
X496120Y539078D01*
X495225Y534578D01*
X494925Y530000D01*
X495225Y525422D01*
X496120Y520922D01*
X497595Y516577D01*
X499624Y512463D01*
X502173Y508648D01*
X505198Y505198D01*
X508648Y502173D01*
X512463Y499624D01*
X516577Y497595D01*
X520922Y496120D01*
X525422Y495225D01*
X530000Y494925D01*
X534578Y495225D01*
X539078Y496120D01*
X543423Y497595D01*
X547537Y499624D01*
X551352Y502173D01*
X554802Y505198D01*
X557827Y508648D01*
X560376Y512463D01*
X562405Y516577D01*
X563880Y520922D01*
X564775Y525422D01*
X565075Y530000D01*
X564775Y534578D01*
X563880Y539078D01*
X562405Y543423D01*
X560376Y547537D01*
X557827Y551352D01*
X554802Y554802D01*
X551352Y557827D01*
X547537Y560376D01*
X543423Y562405D01*
X539078Y563880D01*
X534578Y564775D01*
X530000Y565075D01*
D02*
G37*
G36*
X1323000Y570591D02*
X1320259Y570230D01*
X1317705Y569172D01*
X1315511Y567489D01*
X1313828Y565295D01*
X1312770Y562741D01*
X1312409Y560000D01*
X1312770Y557259D01*
X1313828Y554705D01*
X1314931Y553268D01*
Y516482D01*
X1313828Y515045D01*
X1312770Y512491D01*
X1312409Y509750D01*
X1312770Y507009D01*
X1313828Y504455D01*
X1315511Y502261D01*
X1317705Y500578D01*
X1320259Y499520D01*
X1323000Y499159D01*
X1323554Y499232D01*
X1326170Y498107D01*
X1326583Y496749D01*
X1326745Y495520D01*
X1327702Y493209D01*
X1329225Y491225D01*
X1331209Y489702D01*
X1333520Y488745D01*
X1336000Y488418D01*
X1338480Y488745D01*
X1340791Y489702D01*
X1342775Y491225D01*
X1344298Y493209D01*
X1345255Y495520D01*
X1345582Y498000D01*
X1345255Y500480D01*
X1344298Y502791D01*
X1344571Y503951D01*
X1346270Y506494D01*
X1348750Y506168D01*
X1351230Y506494D01*
X1353541Y507452D01*
X1355526Y508974D01*
X1357048Y510959D01*
X1358006Y513270D01*
X1358332Y515750D01*
X1358006Y518230D01*
X1357048Y520541D01*
X1355526Y522525D01*
X1355306Y522694D01*
Y551056D01*
X1355526Y551225D01*
X1357048Y553209D01*
X1358006Y555520D01*
X1358332Y558000D01*
X1358006Y560480D01*
X1357048Y562791D01*
X1355526Y564776D01*
X1353541Y566298D01*
X1351230Y567256D01*
X1348750Y567582D01*
X1346270Y567256D01*
X1343959Y566298D01*
X1342212Y564958D01*
X1340791Y566048D01*
X1338480Y567005D01*
X1336000Y567332D01*
X1333520Y567005D01*
X1331501Y566169D01*
X1330489Y567489D01*
X1328295Y569172D01*
X1325741Y570230D01*
X1323000Y570591D01*
D02*
G37*
G36*
X1750000Y585075D02*
X1745422Y584775D01*
X1740922Y583880D01*
X1736577Y582405D01*
X1732462Y580376D01*
X1728648Y577827D01*
X1725198Y574802D01*
X1722173Y571352D01*
X1719624Y567537D01*
X1717595Y563423D01*
X1716120Y559078D01*
X1715225Y554578D01*
X1714925Y550000D01*
X1715225Y545422D01*
X1716120Y540922D01*
X1717595Y536577D01*
X1719624Y532462D01*
X1722173Y528648D01*
X1725198Y525198D01*
X1728648Y522173D01*
X1732462Y519624D01*
X1736577Y517595D01*
X1740922Y516120D01*
X1745422Y515225D01*
X1750000Y514925D01*
X1754578Y515225D01*
X1759078Y516120D01*
X1763423Y517595D01*
X1767538Y519624D01*
X1771352Y522173D01*
X1774802Y525198D01*
X1777827Y528648D01*
X1780376Y532462D01*
X1782405Y536577D01*
X1783880Y540922D01*
X1784775Y545422D01*
X1785075Y550000D01*
X1784775Y554578D01*
X1783880Y559078D01*
X1782405Y563423D01*
X1780376Y567537D01*
X1777827Y571352D01*
X1774802Y574802D01*
X1771352Y577827D01*
X1767538Y580376D01*
X1763423Y582405D01*
X1759078Y583880D01*
X1754578Y584775D01*
X1750000Y585075D01*
D02*
G37*
G36*
X1664750Y696582D02*
X1662270Y696255D01*
X1659959Y695298D01*
X1657975Y693775D01*
X1656452Y691791D01*
X1655495Y689480D01*
X1655168Y687000D01*
X1655495Y684520D01*
X1656452Y682209D01*
X1657975Y680225D01*
X1658194Y680056D01*
Y663944D01*
X1657975Y663775D01*
X1656452Y661791D01*
X1655495Y659480D01*
X1655168Y657000D01*
X1655495Y654520D01*
X1656452Y652209D01*
X1657975Y650225D01*
X1659959Y648702D01*
X1662270Y647745D01*
X1664750Y647418D01*
X1667230Y647745D01*
X1669541Y648702D01*
X1671526Y650225D01*
X1673048Y652209D01*
X1674005Y654520D01*
X1674332Y657000D01*
X1674005Y659480D01*
X1673048Y661791D01*
X1671526Y663775D01*
X1671306Y663944D01*
Y680056D01*
X1671526Y680225D01*
X1673048Y682209D01*
X1674005Y684520D01*
X1674332Y687000D01*
X1674005Y689480D01*
X1673048Y691791D01*
X1671526Y693775D01*
X1669541Y695298D01*
X1667230Y696255D01*
X1664750Y696582D01*
D02*
G37*
G36*
X1611000Y706065D02*
X1608354Y705805D01*
X1605809Y705033D01*
X1603463Y703779D01*
X1601408Y702092D01*
X1599721Y700036D01*
X1598467Y697691D01*
X1597695Y695146D01*
X1597435Y692500D01*
X1597695Y689854D01*
X1598467Y687309D01*
X1599721Y684964D01*
X1601408Y682908D01*
X1603463Y681221D01*
X1604444Y680697D01*
Y672694D01*
X1604225Y672525D01*
X1602702Y670541D01*
X1601745Y668230D01*
X1601418Y665750D01*
X1601745Y663270D01*
X1602702Y660959D01*
X1604225Y658975D01*
X1606209Y657452D01*
X1608520Y656495D01*
X1611000Y656168D01*
X1611019Y656171D01*
X1611333Y655960D01*
X1612980Y653403D01*
X1612495Y652230D01*
X1612220Y650144D01*
X1611980Y650005D01*
X1609500Y650332D01*
X1607020Y650005D01*
X1604709Y649048D01*
X1602725Y647525D01*
X1601202Y645541D01*
X1600245Y643230D01*
X1599918Y640750D01*
X1600245Y638270D01*
X1601202Y635959D01*
X1602725Y633975D01*
X1602944Y633806D01*
Y570944D01*
X1602724Y570775D01*
X1601202Y568791D01*
X1600244Y566480D01*
X1599918Y564000D01*
X1600244Y561520D01*
X1601202Y559209D01*
X1602724Y557225D01*
X1604709Y555702D01*
X1607020Y554744D01*
X1609500Y554418D01*
X1611980Y554744D01*
X1614291Y555702D01*
X1615625Y556725D01*
X1616959Y555702D01*
X1619270Y554744D01*
X1621750Y554418D01*
X1624230Y554744D01*
X1626541Y555702D01*
X1628525Y557225D01*
X1630048Y559209D01*
X1631006Y561520D01*
X1631332Y564000D01*
X1631006Y566480D01*
X1630048Y568791D01*
X1629428Y569599D01*
X1631000Y572418D01*
X1633480Y572744D01*
X1635791Y573702D01*
X1637775Y575225D01*
X1639298Y577209D01*
X1640255Y579520D01*
X1640582Y582000D01*
X1640255Y584480D01*
X1639298Y586791D01*
X1637775Y588775D01*
X1637556Y588944D01*
Y679806D01*
X1637775Y679975D01*
X1639298Y681959D01*
X1640255Y684270D01*
X1640582Y686750D01*
X1640255Y689230D01*
X1639298Y691541D01*
X1637775Y693525D01*
X1635791Y695048D01*
X1633480Y696005D01*
X1631000Y696332D01*
X1628520Y696005D01*
X1627266Y695486D01*
X1627024Y695458D01*
X1624478Y696391D01*
X1623758Y696949D01*
X1623533Y697691D01*
X1622279Y700036D01*
X1620592Y702092D01*
X1618537Y703779D01*
X1616191Y705033D01*
X1613647Y705805D01*
X1611000Y706065D01*
D02*
G37*
G36*
X1545000Y685332D02*
X1542520Y685005D01*
X1540209Y684048D01*
X1538225Y682525D01*
X1536702Y680541D01*
X1535745Y678230D01*
X1535444Y675950D01*
X1535342Y675608D01*
X1534000Y673114D01*
X1531520Y672788D01*
X1529209Y671831D01*
X1527225Y670308D01*
X1525702Y668323D01*
X1525499Y667833D01*
X1524480Y668255D01*
X1522000Y668582D01*
X1519520Y668255D01*
X1517209Y667298D01*
X1515225Y665776D01*
X1513702Y663791D01*
X1512744Y661480D01*
X1512418Y659000D01*
X1512744Y656520D01*
X1513702Y654209D01*
X1515225Y652225D01*
X1515450Y652052D01*
X1515508Y579993D01*
X1515225Y579775D01*
X1513702Y577791D01*
X1512744Y575480D01*
X1512418Y573000D01*
X1512744Y570520D01*
X1513702Y568209D01*
X1515225Y566225D01*
X1517209Y564702D01*
X1519520Y563745D01*
X1522000Y563418D01*
X1524480Y563745D01*
X1526791Y564702D01*
X1528775Y566225D01*
X1530298Y568209D01*
X1531255Y570520D01*
X1531582Y573000D01*
X1531255Y575480D01*
X1530298Y577791D01*
X1528775Y579775D01*
X1528620Y579894D01*
X1528602Y602206D01*
X1531513Y604240D01*
X1531601Y604234D01*
X1534000Y603918D01*
X1536284Y604219D01*
X1536702Y603209D01*
X1538225Y601225D01*
X1540209Y599702D01*
X1542520Y598745D01*
X1545000Y598418D01*
X1547480Y598745D01*
X1549791Y599702D01*
X1551776Y601225D01*
X1553298Y603209D01*
X1553745Y604288D01*
X1553850Y604244D01*
X1556330Y603918D01*
X1558810Y604244D01*
X1559444Y604507D01*
X1562444Y602605D01*
Y579944D01*
X1562225Y579775D01*
X1560702Y577791D01*
X1559745Y575480D01*
X1559418Y573000D01*
X1559745Y570520D01*
X1560702Y568209D01*
X1562225Y566225D01*
X1564209Y564702D01*
X1566520Y563745D01*
X1569000Y563418D01*
X1571480Y563745D01*
X1573791Y564702D01*
X1575775Y566225D01*
X1577298Y568209D01*
X1578255Y570520D01*
X1578582Y573000D01*
X1578255Y575480D01*
X1577298Y577791D01*
X1575775Y579775D01*
X1575556Y579944D01*
Y654056D01*
X1575775Y654224D01*
X1577298Y656209D01*
X1578255Y658520D01*
X1578582Y661000D01*
X1578255Y663480D01*
X1577298Y665791D01*
X1575775Y667775D01*
X1573791Y669298D01*
X1571480Y670256D01*
X1569000Y670582D01*
X1566520Y670256D01*
X1564209Y669298D01*
X1563154Y668489D01*
X1563102Y668558D01*
X1561117Y670080D01*
X1558806Y671038D01*
X1556693Y671316D01*
X1555925Y671932D01*
X1554369Y674133D01*
X1554582Y675750D01*
X1554256Y678230D01*
X1553298Y680541D01*
X1551776Y682525D01*
X1549791Y684048D01*
X1547480Y685005D01*
X1545000Y685332D01*
D02*
G37*
G36*
X701000Y670565D02*
X698354Y670305D01*
X695809Y669533D01*
X693464Y668279D01*
X691408Y666592D01*
X689721Y664537D01*
X688467Y662191D01*
X687695Y659646D01*
X687435Y657000D01*
X687695Y654353D01*
X688467Y651809D01*
X689721Y649464D01*
X691408Y647408D01*
X693464Y645721D01*
X695809Y644467D01*
X698354Y643695D01*
X701000Y643435D01*
X703646Y643695D01*
X706191Y644467D01*
X708537Y645721D01*
X710592Y647408D01*
X712279Y649464D01*
X713533Y651809D01*
X714305Y654353D01*
X714565Y657000D01*
X714305Y659646D01*
X713533Y662191D01*
X712279Y664537D01*
X710592Y666592D01*
X708537Y668279D01*
X706191Y669533D01*
X703646Y670305D01*
X701000Y670565D01*
D02*
G37*
G36*
X745000Y608565D02*
X742354Y608305D01*
X739809Y607533D01*
X737464Y606279D01*
X735408Y604592D01*
X733721Y602537D01*
X732467Y600191D01*
X731695Y597646D01*
X731435Y595000D01*
X731695Y592354D01*
X732467Y589809D01*
X733721Y587463D01*
X735408Y585408D01*
X737464Y583721D01*
X739809Y582467D01*
X742354Y581695D01*
X745000Y581435D01*
X747646Y581695D01*
X750191Y582467D01*
X752536Y583721D01*
X754592Y585408D01*
X756279Y587463D01*
X757533Y589809D01*
X758305Y592354D01*
X758565Y595000D01*
X758305Y597646D01*
X757533Y600191D01*
X756279Y602537D01*
X754592Y604592D01*
X752536Y606279D01*
X750191Y607533D01*
X747646Y608305D01*
X745000Y608565D01*
D02*
G37*
G36*
X1418000Y613582D02*
X1415520Y613256D01*
X1413209Y612298D01*
X1411225Y610775D01*
X1411056Y610556D01*
X1383194D01*
X1383026Y610775D01*
X1381041Y612298D01*
X1378730Y613256D01*
X1376250Y613582D01*
X1373770Y613256D01*
X1371459Y612298D01*
X1369475Y610775D01*
X1367952Y608791D01*
X1366994Y606480D01*
X1366668Y604000D01*
X1366994Y601520D01*
X1367952Y599209D01*
X1369475Y597225D01*
X1371459Y595702D01*
X1373770Y594745D01*
X1376250Y594418D01*
X1378730Y594745D01*
X1381041Y595702D01*
X1383026Y597225D01*
X1383194Y597444D01*
X1411056D01*
X1411225Y597225D01*
X1413209Y595702D01*
X1415520Y594745D01*
X1418000Y594418D01*
X1420480Y594745D01*
X1422791Y595702D01*
X1424776Y597225D01*
X1426298Y599209D01*
X1427256Y601520D01*
X1427582Y604000D01*
X1427256Y606480D01*
X1426298Y608791D01*
X1424776Y610775D01*
X1422791Y612298D01*
X1420480Y613256D01*
X1418000Y613582D01*
D02*
G37*
G36*
X935000Y674966D02*
X931626Y674701D01*
X928336Y673911D01*
X925209Y672616D01*
X922324Y670848D01*
X919750Y668650D01*
X917552Y666076D01*
X915784Y663191D01*
X914489Y660064D01*
X913699Y656774D01*
X913434Y653400D01*
X913699Y650026D01*
X914489Y646736D01*
X915784Y643609D01*
X917552Y640723D01*
X919750Y638150D01*
X922324Y635952D01*
X925209Y634184D01*
X928336Y632889D01*
X931626Y632099D01*
X935000Y631833D01*
X938374Y632099D01*
X941664Y632889D01*
X944791Y634184D01*
X947676Y635952D01*
X950250Y638150D01*
X952448Y640723D01*
X954216Y643609D01*
X955511Y646736D01*
X956301Y650026D01*
X956566Y653400D01*
X956301Y656774D01*
X955511Y660064D01*
X954216Y663191D01*
X952448Y666076D01*
X950250Y668650D01*
X947676Y670848D01*
X944791Y672616D01*
X941664Y673911D01*
X938374Y674701D01*
X935000Y674966D01*
D02*
G37*
G36*
X724000Y910268D02*
X721255Y909997D01*
X718616Y909197D01*
X716184Y907897D01*
X714053Y906147D01*
X712303Y904016D01*
X711003Y901583D01*
X710203Y898944D01*
X709932Y896200D01*
X710203Y893456D01*
X711003Y890816D01*
X712303Y888384D01*
X714053Y886253D01*
X716184Y884503D01*
X718616Y883203D01*
X721255Y882403D01*
X724000Y882132D01*
X726745Y882403D01*
X729383Y883203D01*
X731816Y884503D01*
X733947Y886253D01*
X735697Y888384D01*
X736997Y890816D01*
X737797Y893456D01*
X738068Y896200D01*
X737797Y898944D01*
X736997Y901583D01*
X735697Y904016D01*
X733947Y906147D01*
X731816Y907897D01*
X729383Y909197D01*
X726745Y909997D01*
X724000Y910268D01*
D02*
G37*
G36*
X518750Y1186065D02*
X516104Y1185805D01*
X513559Y1185033D01*
X511213Y1183779D01*
X509158Y1182092D01*
X507471Y1180036D01*
X506217Y1177691D01*
X505445Y1175146D01*
X505185Y1172500D01*
X505445Y1169854D01*
X506217Y1167309D01*
X507471Y1164964D01*
X509158Y1162908D01*
X511213Y1161221D01*
X513559Y1159967D01*
X516104Y1159195D01*
X518750Y1158935D01*
X521396Y1159195D01*
X523941Y1159967D01*
X526287Y1161221D01*
X528342Y1162908D01*
X530029Y1164964D01*
X531283Y1167309D01*
X532055Y1169854D01*
X532315Y1172500D01*
X532055Y1175146D01*
X531283Y1177691D01*
X530029Y1180036D01*
X528342Y1182092D01*
X526287Y1183779D01*
X523941Y1185033D01*
X521396Y1185805D01*
X518750Y1186065D01*
D02*
G37*
G36*
X1425000Y1225565D02*
X1422354Y1225305D01*
X1419809Y1224533D01*
X1417464Y1223279D01*
X1415408Y1221592D01*
X1413721Y1219537D01*
X1412467Y1217191D01*
X1411695Y1214646D01*
X1411435Y1212000D01*
X1411695Y1209353D01*
X1412467Y1206809D01*
X1413721Y1204464D01*
X1415408Y1202408D01*
X1417464Y1200721D01*
X1419809Y1199467D01*
X1422354Y1198695D01*
X1425000Y1198435D01*
X1427646Y1198695D01*
X1430191Y1199467D01*
X1432536Y1200721D01*
X1434592Y1202408D01*
X1436279Y1204464D01*
X1437533Y1206809D01*
X1438305Y1209353D01*
X1438565Y1212000D01*
X1438305Y1214646D01*
X1437533Y1217191D01*
X1436279Y1219537D01*
X1434592Y1221592D01*
X1432536Y1223279D01*
X1430191Y1224533D01*
X1427646Y1225305D01*
X1425000Y1225565D01*
D02*
G37*
G36*
X1442400Y1289063D02*
X1439852Y1288812D01*
X1437401Y1288069D01*
X1435143Y1286861D01*
X1433163Y1285237D01*
X1431539Y1283257D01*
X1431401Y1283000D01*
X1427999D01*
X1427861Y1283257D01*
X1426237Y1285237D01*
X1424257Y1286861D01*
X1421999Y1288069D01*
X1419548Y1288812D01*
X1417000Y1289063D01*
X1414452Y1288812D01*
X1412001Y1288069D01*
X1409743Y1286861D01*
X1407763Y1285237D01*
X1407600Y1285038D01*
X1404600Y1286111D01*
Y1289000D01*
X1378600D01*
Y1263000D01*
X1404600D01*
Y1265889D01*
X1407600Y1266962D01*
X1407763Y1266763D01*
X1409743Y1265139D01*
X1412001Y1263932D01*
X1414452Y1263188D01*
X1417000Y1262937D01*
X1419548Y1263188D01*
X1421999Y1263932D01*
X1424257Y1265139D01*
X1426237Y1266763D01*
X1427861Y1268743D01*
X1427999Y1269000D01*
X1431401D01*
X1431539Y1268743D01*
X1433163Y1266763D01*
X1435143Y1265139D01*
X1437401Y1263932D01*
X1439852Y1263188D01*
X1442400Y1262937D01*
X1444948Y1263188D01*
X1447399Y1263932D01*
X1449657Y1265139D01*
X1451637Y1266763D01*
X1453261Y1268743D01*
X1454469Y1271001D01*
X1455212Y1273452D01*
X1455463Y1276000D01*
X1455212Y1278548D01*
X1454469Y1280999D01*
X1453261Y1283257D01*
X1451637Y1285237D01*
X1449657Y1286861D01*
X1447399Y1288069D01*
X1444948Y1288812D01*
X1442400Y1289063D01*
D02*
G37*
G36*
X1320000Y1179565D02*
X1317354Y1179305D01*
X1314809Y1178533D01*
X1312464Y1177279D01*
X1310408Y1175592D01*
X1308721Y1173537D01*
X1307467Y1171191D01*
X1306695Y1168646D01*
X1306435Y1166000D01*
X1306695Y1163354D01*
X1307467Y1160809D01*
X1308721Y1158464D01*
X1310408Y1156408D01*
X1312464Y1154721D01*
X1314809Y1153467D01*
X1317354Y1152695D01*
X1320000Y1152435D01*
X1322646Y1152695D01*
X1325191Y1153467D01*
X1327536Y1154721D01*
X1329592Y1156408D01*
X1331279Y1158464D01*
X1332533Y1160809D01*
X1333305Y1163354D01*
X1333565Y1166000D01*
X1333305Y1168646D01*
X1332533Y1171191D01*
X1331279Y1173537D01*
X1329592Y1175592D01*
X1327536Y1177279D01*
X1325191Y1178533D01*
X1322646Y1179305D01*
X1320000Y1179565D01*
D02*
G37*
G36*
X1635000D02*
X1632354Y1179305D01*
X1629809Y1178533D01*
X1627464Y1177279D01*
X1625408Y1175592D01*
X1623721Y1173537D01*
X1622467Y1171191D01*
X1621695Y1168646D01*
X1621435Y1166000D01*
X1621695Y1163354D01*
X1622467Y1160809D01*
X1623721Y1158464D01*
X1625408Y1156408D01*
X1627464Y1154721D01*
X1627940Y1154466D01*
Y1122750D01*
X1628180Y1120923D01*
X1628885Y1119220D01*
X1630008Y1117757D01*
X1632479Y1115286D01*
X1632744Y1113270D01*
X1633702Y1110959D01*
X1635224Y1108975D01*
X1637209Y1107452D01*
X1639520Y1106495D01*
X1642000Y1106168D01*
X1644480Y1106495D01*
X1646791Y1107452D01*
X1648775Y1108975D01*
X1650298Y1110959D01*
X1651255Y1113270D01*
X1651582Y1115750D01*
X1651255Y1118230D01*
X1650298Y1120541D01*
X1648775Y1122525D01*
X1646791Y1124048D01*
X1644480Y1125005D01*
X1642464Y1125271D01*
X1642060Y1125675D01*
Y1154466D01*
X1642536Y1154721D01*
X1644592Y1156408D01*
X1646279Y1158464D01*
X1647533Y1160809D01*
X1648305Y1163354D01*
X1648565Y1166000D01*
X1648305Y1168646D01*
X1647533Y1171191D01*
X1646279Y1173537D01*
X1644592Y1175592D01*
X1642536Y1177279D01*
X1640191Y1178533D01*
X1637646Y1179305D01*
X1635000Y1179565D01*
D02*
G37*
G36*
X725000Y1168565D02*
X722354Y1168305D01*
X719809Y1167533D01*
X717464Y1166279D01*
X715408Y1164592D01*
X713721Y1162536D01*
X712467Y1160191D01*
X711695Y1157646D01*
X711435Y1155000D01*
X711695Y1152354D01*
X712467Y1149809D01*
X713721Y1147464D01*
X715408Y1145408D01*
X717464Y1143721D01*
X719809Y1142467D01*
X722354Y1141695D01*
X725000Y1141435D01*
X727646Y1141695D01*
X730191Y1142467D01*
X732536Y1143721D01*
X734592Y1145408D01*
X736279Y1147464D01*
X737533Y1149809D01*
X738305Y1152354D01*
X738565Y1155000D01*
X738305Y1157646D01*
X737533Y1160191D01*
X736279Y1162536D01*
X734592Y1164592D01*
X732536Y1166279D01*
X730191Y1167533D01*
X727646Y1168305D01*
X725000Y1168565D01*
D02*
G37*
G36*
X944000Y1179565D02*
X941354Y1179305D01*
X938809Y1178533D01*
X936463Y1177279D01*
X934408Y1175592D01*
X932721Y1173537D01*
X931467Y1171191D01*
X930695Y1168646D01*
X930435Y1166000D01*
X930695Y1163354D01*
X931467Y1160809D01*
X932721Y1158464D01*
X934408Y1156408D01*
X936463Y1154721D01*
X938809Y1153467D01*
X941354Y1152695D01*
X944000Y1152435D01*
X946646Y1152695D01*
X949191Y1153467D01*
X951536Y1154721D01*
X953592Y1156408D01*
X955279Y1158464D01*
X956533Y1160809D01*
X957305Y1163354D01*
X957565Y1166000D01*
X957305Y1168646D01*
X956533Y1171191D01*
X955279Y1173537D01*
X953592Y1175592D01*
X951536Y1177279D01*
X949191Y1178533D01*
X946646Y1179305D01*
X944000Y1179565D01*
D02*
G37*
G36*
X1546000Y1338566D02*
X1542626Y1338301D01*
X1539336Y1337511D01*
X1536209Y1336216D01*
X1533324Y1334448D01*
X1530750Y1332250D01*
X1528552Y1329677D01*
X1526784Y1326791D01*
X1525489Y1323664D01*
X1524699Y1320374D01*
X1524434Y1317000D01*
X1524699Y1313626D01*
X1525489Y1310336D01*
X1526784Y1307209D01*
X1528552Y1304324D01*
X1530750Y1301750D01*
X1533324Y1299552D01*
X1536209Y1297784D01*
X1539336Y1296489D01*
X1542626Y1295699D01*
X1546000Y1295434D01*
X1549374Y1295699D01*
X1552664Y1296489D01*
X1555791Y1297784D01*
X1558676Y1299552D01*
X1561250Y1301750D01*
X1563448Y1304324D01*
X1565216Y1307209D01*
X1566511Y1310336D01*
X1567301Y1313626D01*
X1567567Y1317000D01*
X1567301Y1320374D01*
X1566511Y1323664D01*
X1565216Y1326791D01*
X1563448Y1329677D01*
X1561250Y1332250D01*
X1558676Y1334448D01*
X1555791Y1336216D01*
X1552664Y1337511D01*
X1549374Y1338301D01*
X1546000Y1338566D01*
D02*
G37*
G36*
X350000Y1385075D02*
X345422Y1384775D01*
X340922Y1383880D01*
X336577Y1382405D01*
X332463Y1380376D01*
X328648Y1377827D01*
X325198Y1374802D01*
X322173Y1371352D01*
X319624Y1367538D01*
X317595Y1363423D01*
X316120Y1359078D01*
X315225Y1354578D01*
X314925Y1350000D01*
X315225Y1345422D01*
X316120Y1340922D01*
X317595Y1336577D01*
X319624Y1332462D01*
X322173Y1328648D01*
X325198Y1325198D01*
X328648Y1322173D01*
X332463Y1319624D01*
X336577Y1317595D01*
X340922Y1316120D01*
X345422Y1315225D01*
X350000Y1314925D01*
X354578Y1315225D01*
X359078Y1316120D01*
X363423Y1317595D01*
X367537Y1319624D01*
X371352Y1322173D01*
X374802Y1325198D01*
X377827Y1328648D01*
X380376Y1332462D01*
X382405Y1336577D01*
X383880Y1340922D01*
X384775Y1345422D01*
X385075Y1350000D01*
X384775Y1354578D01*
X383880Y1359078D01*
X382405Y1363423D01*
X380376Y1367538D01*
X377827Y1371352D01*
X374802Y1374802D01*
X371352Y1377827D01*
X367537Y1380376D01*
X363423Y1382405D01*
X359078Y1383880D01*
X354578Y1384775D01*
X350000Y1385075D01*
D02*
G37*
G36*
X1750000D02*
X1745422Y1384775D01*
X1740922Y1383880D01*
X1736577Y1382405D01*
X1732462Y1380376D01*
X1728648Y1377827D01*
X1725198Y1374802D01*
X1722173Y1371352D01*
X1719624Y1367538D01*
X1717595Y1363423D01*
X1716120Y1359078D01*
X1715225Y1354578D01*
X1714925Y1350000D01*
X1715225Y1345422D01*
X1716120Y1340922D01*
X1717595Y1336577D01*
X1719624Y1332462D01*
X1722173Y1328648D01*
X1725198Y1325198D01*
X1728648Y1322173D01*
X1732462Y1319624D01*
X1736577Y1317595D01*
X1740922Y1316120D01*
X1745422Y1315225D01*
X1750000Y1314925D01*
X1754578Y1315225D01*
X1759078Y1316120D01*
X1763423Y1317595D01*
X1767538Y1319624D01*
X1771352Y1322173D01*
X1774802Y1325198D01*
X1777827Y1328648D01*
X1780376Y1332462D01*
X1782405Y1336577D01*
X1783880Y1340922D01*
X1784775Y1345422D01*
X1785075Y1350000D01*
X1784775Y1354578D01*
X1783880Y1359078D01*
X1782405Y1363423D01*
X1780376Y1367538D01*
X1777827Y1371352D01*
X1774802Y1374802D01*
X1771352Y1377827D01*
X1767538Y1380376D01*
X1763423Y1382405D01*
X1759078Y1383880D01*
X1754578Y1384775D01*
X1750000Y1385075D01*
D02*
G37*
G36*
X1292000Y1338566D02*
X1288626Y1338301D01*
X1285336Y1337511D01*
X1282209Y1336216D01*
X1279324Y1334448D01*
X1276750Y1332250D01*
X1274552Y1329677D01*
X1272784Y1326791D01*
X1271489Y1323664D01*
X1270699Y1320374D01*
X1270434Y1317000D01*
X1270699Y1313626D01*
X1271489Y1310336D01*
X1272784Y1307209D01*
X1274552Y1304324D01*
X1276750Y1301750D01*
X1279324Y1299552D01*
X1282209Y1297784D01*
X1285336Y1296489D01*
X1288626Y1295699D01*
X1292000Y1295434D01*
X1295374Y1295699D01*
X1298664Y1296489D01*
X1301791Y1297784D01*
X1304677Y1299552D01*
X1307250Y1301750D01*
X1309448Y1304324D01*
X1311216Y1307209D01*
X1312511Y1310336D01*
X1313301Y1313626D01*
X1313566Y1317000D01*
X1313301Y1320374D01*
X1312511Y1323664D01*
X1311216Y1326791D01*
X1309448Y1329677D01*
X1307250Y1332250D01*
X1304677Y1334448D01*
X1301791Y1336216D01*
X1298664Y1337511D01*
X1295374Y1338301D01*
X1292000Y1338566D01*
D02*
G37*
G36*
X745400Y1293063D02*
X742852Y1292812D01*
X740401Y1292068D01*
X738143Y1290861D01*
X736163Y1289237D01*
X734539Y1287257D01*
X734401Y1287000D01*
X730999D01*
X730861Y1287257D01*
X729237Y1289237D01*
X727257Y1290861D01*
X724999Y1292068D01*
X722548Y1292812D01*
X720000Y1293063D01*
X717452Y1292812D01*
X715001Y1292068D01*
X712743Y1290861D01*
X710763Y1289237D01*
X710600Y1289038D01*
X707600Y1290112D01*
Y1293000D01*
X681600D01*
Y1267000D01*
X707600D01*
Y1269889D01*
X710600Y1270962D01*
X710763Y1270763D01*
X712743Y1269139D01*
X715001Y1267932D01*
X717452Y1267188D01*
X720000Y1266937D01*
X722548Y1267188D01*
X724999Y1267932D01*
X727257Y1269139D01*
X729237Y1270763D01*
X730861Y1272743D01*
X730999Y1273000D01*
X734401D01*
X734539Y1272743D01*
X736163Y1270763D01*
X738143Y1269139D01*
X740401Y1267932D01*
X742852Y1267188D01*
X745400Y1266937D01*
X747948Y1267188D01*
X750399Y1267932D01*
X752657Y1269139D01*
X754637Y1270763D01*
X756261Y1272743D01*
X757468Y1275001D01*
X758212Y1277452D01*
X758463Y1280000D01*
X758212Y1282548D01*
X757468Y1284999D01*
X756261Y1287257D01*
X754637Y1289237D01*
X752657Y1290861D01*
X750399Y1292068D01*
X747948Y1292812D01*
X745400Y1293063D01*
D02*
G37*
G36*
X595000Y1338566D02*
X591626Y1338301D01*
X588336Y1337511D01*
X585209Y1336216D01*
X582323Y1334448D01*
X579750Y1332250D01*
X577552Y1329677D01*
X575784Y1326791D01*
X574489Y1323664D01*
X573699Y1320374D01*
X573433Y1317000D01*
X573699Y1313626D01*
X574489Y1310336D01*
X575784Y1307209D01*
X577552Y1304324D01*
X579750Y1301750D01*
X582323Y1299552D01*
X585209Y1297784D01*
X588336Y1296489D01*
X591626Y1295699D01*
X595000Y1295434D01*
X598374Y1295699D01*
X601664Y1296489D01*
X604791Y1297784D01*
X607677Y1299552D01*
X610250Y1301750D01*
X612448Y1304324D01*
X614216Y1307209D01*
X615511Y1310336D01*
X616301Y1313626D01*
X616567Y1317000D01*
X616301Y1320374D01*
X615511Y1323664D01*
X614216Y1326791D01*
X612448Y1329677D01*
X610250Y1332250D01*
X607677Y1334448D01*
X604791Y1336216D01*
X601664Y1337511D01*
X598374Y1338301D01*
X595000Y1338566D01*
D02*
G37*
G36*
X849000D02*
X845626Y1338301D01*
X842336Y1337511D01*
X839209Y1336216D01*
X836323Y1334448D01*
X833750Y1332250D01*
X831552Y1329677D01*
X829784Y1326791D01*
X828489Y1323664D01*
X827699Y1320374D01*
X827433Y1317000D01*
X827699Y1313626D01*
X828489Y1310336D01*
X829784Y1307209D01*
X831552Y1304324D01*
X833750Y1301750D01*
X836323Y1299552D01*
X839209Y1297784D01*
X842336Y1296489D01*
X845626Y1295699D01*
X849000Y1295434D01*
X852374Y1295699D01*
X855664Y1296489D01*
X858791Y1297784D01*
X861676Y1299552D01*
X864250Y1301750D01*
X866448Y1304324D01*
X868216Y1307209D01*
X869511Y1310336D01*
X870301Y1313626D01*
X870566Y1317000D01*
X870301Y1320374D01*
X869511Y1323664D01*
X868216Y1326791D01*
X866448Y1329677D01*
X864250Y1332250D01*
X861676Y1334448D01*
X858791Y1336216D01*
X855664Y1337511D01*
X852374Y1338301D01*
X849000Y1338566D01*
D02*
G37*
G36*
X986000Y1126565D02*
X983354Y1126305D01*
X980809Y1125533D01*
X978464Y1124279D01*
X976408Y1122592D01*
X974721Y1120536D01*
X973467Y1118191D01*
X972695Y1115647D01*
X972435Y1113000D01*
X972695Y1110354D01*
X973467Y1107809D01*
X974721Y1105463D01*
X976408Y1103408D01*
X978464Y1101721D01*
X980809Y1100467D01*
X983354Y1099695D01*
X986000Y1099435D01*
X988646Y1099695D01*
X991191Y1100467D01*
X993537Y1101721D01*
X995592Y1103408D01*
X997279Y1105463D01*
X998533Y1107809D01*
X999305Y1110354D01*
X999565Y1113000D01*
X999305Y1115647D01*
X998533Y1118191D01*
X997279Y1120536D01*
X995592Y1122592D01*
X993537Y1124279D01*
X991191Y1125533D01*
X988646Y1126305D01*
X986000Y1126565D01*
D02*
G37*
G36*
X1301850Y1012250D02*
X1275350D01*
Y985750D01*
X1277790D01*
X1278774Y983821D01*
X1278969Y982750D01*
X1277530Y980997D01*
X1276299Y978695D01*
X1275542Y976198D01*
X1275286Y973600D01*
X1275542Y971003D01*
X1276299Y968505D01*
X1277530Y966203D01*
X1279185Y964185D01*
X1281203Y962530D01*
Y959270D01*
X1279185Y957615D01*
X1277530Y955597D01*
X1276299Y953295D01*
X1275542Y950798D01*
X1275286Y948200D01*
X1275542Y945603D01*
X1276299Y943105D01*
X1277530Y940803D01*
X1279185Y938785D01*
X1281203Y937130D01*
X1283505Y935899D01*
X1286003Y935142D01*
X1288600Y934886D01*
X1291197Y935142D01*
X1293695Y935899D01*
X1295997Y937130D01*
X1298015Y938785D01*
X1299670Y940803D01*
X1300901Y943105D01*
X1301658Y945603D01*
X1301914Y948200D01*
X1301658Y950798D01*
X1300901Y953295D01*
X1299670Y955597D01*
X1298015Y957615D01*
X1295997Y959270D01*
Y962530D01*
X1298015Y964185D01*
X1299670Y966203D01*
X1300901Y968505D01*
X1301658Y971003D01*
X1301914Y973600D01*
X1301658Y976198D01*
X1300901Y978695D01*
X1299670Y980997D01*
X1298232Y982750D01*
X1298426Y983821D01*
X1299410Y985750D01*
X1301850D01*
Y1012250D01*
D02*
G37*
G36*
X1810000Y955314D02*
X1807403Y955058D01*
X1804905Y954301D01*
X1802603Y953070D01*
X1800585Y951414D01*
X1798930Y949397D01*
X1798480Y948556D01*
X1702444D01*
X1702276Y948775D01*
X1700291Y950298D01*
X1697980Y951255D01*
X1695500Y951582D01*
X1693020Y951255D01*
X1690709Y950298D01*
X1688725Y948775D01*
X1687202Y946791D01*
X1686245Y944480D01*
X1685918Y942000D01*
X1686245Y939520D01*
X1687202Y937209D01*
X1688725Y935225D01*
X1690709Y933702D01*
X1693020Y932745D01*
X1695500Y932418D01*
X1697980Y932745D01*
X1700291Y933702D01*
X1702276Y935225D01*
X1702444Y935444D01*
X1798480D01*
X1798930Y934603D01*
X1800585Y932586D01*
X1802603Y930930D01*
Y927670D01*
X1800585Y926014D01*
X1798930Y923997D01*
X1797699Y921695D01*
X1796942Y919197D01*
X1796686Y916600D01*
X1796942Y914003D01*
X1797699Y911505D01*
X1798930Y909203D01*
X1800585Y907186D01*
X1802603Y905530D01*
Y902270D01*
X1800585Y900614D01*
X1798930Y898597D01*
X1798480Y897756D01*
X1702444D01*
X1702276Y897975D01*
X1700291Y899498D01*
X1697980Y900455D01*
X1695500Y900782D01*
X1693020Y900455D01*
X1690709Y899498D01*
X1688725Y897975D01*
X1687202Y895991D01*
X1686245Y893680D01*
X1685918Y891200D01*
X1686245Y888720D01*
X1687202Y886409D01*
X1688725Y884425D01*
X1690709Y882902D01*
X1693020Y881945D01*
X1695500Y881618D01*
X1697980Y881945D01*
X1700291Y882902D01*
X1702276Y884425D01*
X1702444Y884644D01*
X1798480D01*
X1798930Y883803D01*
X1800585Y881786D01*
X1802603Y880130D01*
X1804905Y878899D01*
X1807403Y878142D01*
X1810000Y877886D01*
X1812598Y878142D01*
X1815095Y878899D01*
X1817397Y880130D01*
X1819415Y881786D01*
X1821070Y883803D01*
X1822301Y886105D01*
X1823058Y888603D01*
X1823314Y891200D01*
X1823058Y893798D01*
X1822301Y896295D01*
X1821070Y898597D01*
X1819415Y900614D01*
X1817397Y902270D01*
Y905530D01*
X1819415Y907186D01*
X1821070Y909203D01*
X1822301Y911505D01*
X1823058Y914003D01*
X1823314Y916600D01*
X1823058Y919197D01*
X1822301Y921695D01*
X1821070Y923997D01*
X1819415Y926014D01*
X1817397Y927670D01*
Y930930D01*
X1819415Y932586D01*
X1821070Y934603D01*
X1822301Y936905D01*
X1823058Y939402D01*
X1823314Y942000D01*
X1823058Y944597D01*
X1822301Y947095D01*
X1821070Y949397D01*
X1819415Y951414D01*
X1817397Y953070D01*
X1815095Y954301D01*
X1812598Y955058D01*
X1810000Y955314D01*
D02*
G37*
G36*
X600000Y997565D02*
X597354Y997305D01*
X594809Y996533D01*
X592463Y995279D01*
X590408Y993592D01*
X588721Y991536D01*
X587467Y989191D01*
X586695Y986646D01*
X586435Y984000D01*
X586695Y981354D01*
X587467Y978809D01*
X588721Y976463D01*
X590408Y974408D01*
X592463Y972721D01*
X594809Y971467D01*
X597354Y970695D01*
X600000Y970435D01*
X602646Y970695D01*
X605191Y971467D01*
X607537Y972721D01*
X609592Y974408D01*
X611279Y976463D01*
X612533Y978809D01*
X613305Y981354D01*
X613565Y984000D01*
X613305Y986646D01*
X612533Y989191D01*
X611279Y991536D01*
X609592Y993592D01*
X607537Y995279D01*
X605191Y996533D01*
X602646Y997305D01*
X600000Y997565D01*
D02*
G37*
G36*
X738000Y961000D02*
X710000D01*
Y933000D01*
X738000D01*
Y961000D01*
D02*
G37*
G36*
X935000Y928966D02*
X931626Y928701D01*
X928336Y927911D01*
X925209Y926616D01*
X922324Y924848D01*
X919750Y922650D01*
X917552Y920076D01*
X915784Y917191D01*
X914489Y914064D01*
X913699Y910774D01*
X913434Y907400D01*
X913699Y904026D01*
X914489Y900736D01*
X915784Y897609D01*
X917552Y894724D01*
X919750Y892150D01*
X922324Y889952D01*
X925209Y888184D01*
X928336Y886889D01*
X931626Y886099D01*
X935000Y885834D01*
X938374Y886099D01*
X941664Y886889D01*
X944791Y888184D01*
X947676Y889952D01*
X950250Y892150D01*
X952448Y894724D01*
X954216Y897609D01*
X955511Y900736D01*
X956301Y904026D01*
X956566Y907400D01*
X956301Y910774D01*
X955511Y914064D01*
X954216Y917191D01*
X952448Y920076D01*
X950250Y922650D01*
X947676Y924848D01*
X944791Y926616D01*
X941664Y927911D01*
X938374Y928701D01*
X935000Y928966D01*
D02*
G37*
G36*
X1469000Y967582D02*
X1466520Y967255D01*
X1464209Y966298D01*
X1462225Y964775D01*
X1460702Y962791D01*
X1459745Y960480D01*
X1459418Y958000D01*
X1459745Y955520D01*
X1460702Y953209D01*
X1462225Y951225D01*
X1462444Y951056D01*
Y919944D01*
X1462225Y919775D01*
X1460702Y917791D01*
X1459745Y915480D01*
X1459418Y913000D01*
X1459745Y910520D01*
X1460702Y908209D01*
X1462225Y906225D01*
X1464209Y904702D01*
X1466520Y903745D01*
X1469000Y903418D01*
X1471480Y903745D01*
X1473791Y904702D01*
X1475775Y906225D01*
X1477298Y908209D01*
X1478255Y910520D01*
X1478582Y913000D01*
X1478255Y915480D01*
X1477298Y917791D01*
X1475775Y919775D01*
X1475556Y919944D01*
Y951056D01*
X1475775Y951225D01*
X1477298Y953209D01*
X1478255Y955520D01*
X1478582Y958000D01*
X1478255Y960480D01*
X1477298Y962791D01*
X1475775Y964775D01*
X1473791Y966298D01*
X1471480Y967255D01*
X1469000Y967582D01*
D02*
G37*
G36*
X1399000Y956582D02*
X1396520Y956255D01*
X1394209Y955298D01*
X1392224Y953775D01*
X1390702Y951791D01*
X1389745Y949480D01*
X1389418Y947000D01*
X1389745Y944520D01*
X1390702Y942209D01*
X1392224Y940225D01*
X1392444Y940056D01*
Y920194D01*
X1392224Y920025D01*
X1390702Y918041D01*
X1389745Y915730D01*
X1389418Y913250D01*
X1389745Y910770D01*
X1390702Y908459D01*
X1392224Y906475D01*
X1394209Y904952D01*
X1396520Y903995D01*
X1399000Y903668D01*
X1401480Y903995D01*
X1403791Y904952D01*
X1405775Y906475D01*
X1407298Y908459D01*
X1408255Y910770D01*
X1408582Y913250D01*
X1408255Y915730D01*
X1407298Y918041D01*
X1405775Y920025D01*
X1405556Y920194D01*
Y940056D01*
X1405775Y940225D01*
X1407298Y942209D01*
X1408255Y944520D01*
X1408582Y947000D01*
X1408255Y949480D01*
X1407298Y951791D01*
X1405775Y953775D01*
X1403791Y955298D01*
X1401480Y956255D01*
X1399000Y956582D01*
D02*
G37*
G36*
X1269000Y1070565D02*
X1266354Y1070305D01*
X1263809Y1069533D01*
X1261463Y1068279D01*
X1259408Y1066592D01*
X1257721Y1064537D01*
X1256467Y1062191D01*
X1255695Y1059646D01*
X1255435Y1057000D01*
X1255695Y1054353D01*
X1256467Y1051809D01*
X1257721Y1049464D01*
X1259408Y1047408D01*
X1261463Y1045721D01*
X1263809Y1044467D01*
X1266354Y1043695D01*
X1269000Y1043435D01*
X1271646Y1043695D01*
X1274191Y1044467D01*
X1276536Y1045721D01*
X1278592Y1047408D01*
X1280279Y1049464D01*
X1281533Y1051809D01*
X1282305Y1054353D01*
X1282565Y1057000D01*
X1282305Y1059646D01*
X1281533Y1062191D01*
X1280279Y1064537D01*
X1278592Y1066592D01*
X1276536Y1068279D01*
X1274191Y1069533D01*
X1271646Y1070305D01*
X1269000Y1070565D01*
D02*
G37*
G36*
X930000Y1080565D02*
X927354Y1080305D01*
X924809Y1079533D01*
X922464Y1078279D01*
X920408Y1076592D01*
X918721Y1074537D01*
X917467Y1072191D01*
X916695Y1069647D01*
X916435Y1067000D01*
X916695Y1064353D01*
X917467Y1061809D01*
X918721Y1059464D01*
X920408Y1057408D01*
X922464Y1055721D01*
X924809Y1054467D01*
X927354Y1053695D01*
X930000Y1053435D01*
X932646Y1053695D01*
X935191Y1054467D01*
X937536Y1055721D01*
X939592Y1057408D01*
X941279Y1059464D01*
X942533Y1061809D01*
X943305Y1064353D01*
X943565Y1067000D01*
X943305Y1069647D01*
X942533Y1072191D01*
X941279Y1074537D01*
X939592Y1076592D01*
X937536Y1078279D01*
X935191Y1079533D01*
X932646Y1080305D01*
X930000Y1080565D01*
D02*
G37*
G36*
X410000Y1099565D02*
X407354Y1099305D01*
X404809Y1098533D01*
X402463Y1097279D01*
X400408Y1095592D01*
X398721Y1093537D01*
X398063Y1092306D01*
X391444D01*
X391275Y1092525D01*
X389291Y1094048D01*
X386980Y1095005D01*
X384500Y1095332D01*
X382020Y1095005D01*
X379709Y1094048D01*
X377724Y1092525D01*
X376202Y1090541D01*
X375244Y1088230D01*
X374918Y1085750D01*
X375244Y1083270D01*
X376202Y1080959D01*
X377303Y1079524D01*
X377568Y1078322D01*
X376959Y1075781D01*
X375975Y1075025D01*
X374452Y1073041D01*
X373495Y1070730D01*
X373168Y1068250D01*
X373495Y1065770D01*
X374452Y1063459D01*
X375975Y1061475D01*
X377959Y1059952D01*
X380270Y1058995D01*
X382750Y1058668D01*
X385230Y1058995D01*
X387541Y1059952D01*
X389525Y1061475D01*
X389694Y1061694D01*
X398806D01*
X398974Y1061475D01*
X400959Y1059952D01*
X403270Y1058995D01*
X405750Y1058668D01*
X408230Y1058995D01*
X410541Y1059952D01*
X412525Y1061475D01*
X414048Y1063459D01*
X415005Y1065770D01*
X415332Y1068250D01*
X415005Y1070730D01*
X415191Y1073467D01*
X417537Y1074721D01*
X419592Y1076408D01*
X421279Y1078464D01*
X422533Y1080809D01*
X423305Y1083354D01*
X423565Y1086000D01*
X423305Y1088646D01*
X422533Y1091191D01*
X421279Y1093537D01*
X419592Y1095592D01*
X417537Y1097279D01*
X415191Y1098533D01*
X412646Y1099305D01*
X410000Y1099565D01*
D02*
G37*
G36*
X1578000Y1045565D02*
X1575354Y1045305D01*
X1572809Y1044533D01*
X1570464Y1043279D01*
X1568408Y1041592D01*
X1566721Y1039537D01*
X1565467Y1037191D01*
X1564695Y1034646D01*
X1564435Y1032000D01*
X1564695Y1029353D01*
X1565467Y1026809D01*
X1566721Y1024464D01*
X1568408Y1022408D01*
X1570464Y1020721D01*
X1572809Y1019467D01*
X1575354Y1018695D01*
X1578000Y1018435D01*
X1580647Y1018695D01*
X1583191Y1019467D01*
X1585536Y1020721D01*
X1587592Y1022408D01*
X1589279Y1024464D01*
X1590533Y1026809D01*
X1591305Y1029353D01*
X1591565Y1032000D01*
X1591305Y1034646D01*
X1590533Y1037191D01*
X1589279Y1039537D01*
X1587592Y1041592D01*
X1585536Y1043279D01*
X1583191Y1044533D01*
X1580647Y1045305D01*
X1578000Y1045565D01*
D02*
G37*
G36*
X1546997Y985579D02*
X1544517Y985252D01*
X1542206Y984295D01*
X1540222Y982772D01*
X1538699Y980788D01*
X1537742Y978477D01*
X1537415Y975997D01*
X1537451Y975723D01*
X1535284Y973556D01*
X1531944D01*
X1531775Y973775D01*
X1529791Y975298D01*
X1527480Y976255D01*
X1525000Y976582D01*
X1522520Y976255D01*
X1520209Y975298D01*
X1518224Y973775D01*
X1516702Y971791D01*
X1515744Y969480D01*
X1515418Y967000D01*
X1515744Y964520D01*
X1516702Y962209D01*
X1517946Y960587D01*
X1516952Y959291D01*
X1515995Y956980D01*
X1515668Y954500D01*
X1515995Y952020D01*
X1516952Y949709D01*
X1518475Y947725D01*
X1520459Y946202D01*
X1521858Y945622D01*
X1522725Y943126D01*
X1522706Y942227D01*
X1507364Y926886D01*
X1506322Y925528D01*
X1505667Y923947D01*
X1505444Y922250D01*
Y892293D01*
X1505667Y890596D01*
X1506322Y889015D01*
X1507364Y887657D01*
X1521454Y873567D01*
X1521418Y873293D01*
X1521745Y870813D01*
X1522702Y868502D01*
X1524225Y866517D01*
X1526209Y864994D01*
X1528520Y864037D01*
X1531000Y863711D01*
X1533480Y864037D01*
X1535791Y864994D01*
X1537776Y866517D01*
X1539298Y868502D01*
X1540255Y870813D01*
X1540582Y873293D01*
X1540255Y875773D01*
X1539298Y878084D01*
X1537776Y880068D01*
X1535791Y881591D01*
X1533480Y882548D01*
X1531000Y882875D01*
X1530726Y882839D01*
X1527211Y886353D01*
X1527749Y890058D01*
X1528310Y890488D01*
X1556882D01*
X1557051Y890268D01*
X1559035Y888746D01*
X1561346Y887788D01*
X1563826Y887462D01*
X1566306Y887788D01*
X1568617Y888746D01*
X1570602Y890268D01*
X1572124Y892253D01*
X1573082Y894564D01*
X1573408Y897044D01*
X1573082Y899524D01*
X1572124Y901835D01*
X1570602Y903819D01*
X1568617Y905342D01*
X1566306Y906299D01*
X1563826Y906626D01*
X1561346Y906299D01*
X1559035Y905342D01*
X1557051Y903819D01*
X1556882Y903600D01*
X1528710D01*
X1528350Y904069D01*
X1528130Y904238D01*
Y910611D01*
X1531130Y912363D01*
X1532020Y911995D01*
X1534500Y911668D01*
X1536980Y911995D01*
X1539291Y912952D01*
X1541275Y914475D01*
X1542798Y916459D01*
X1543310Y917694D01*
X1557306D01*
X1557475Y917475D01*
X1559459Y915952D01*
X1561770Y914995D01*
X1564250Y914668D01*
X1566730Y914995D01*
X1569041Y915952D01*
X1571026Y917475D01*
X1572548Y919459D01*
X1573506Y921770D01*
X1573832Y924250D01*
X1573627Y925806D01*
X1575791Y926702D01*
X1577776Y928225D01*
X1579298Y930209D01*
X1580255Y932520D01*
X1580582Y935000D01*
X1580255Y937480D01*
X1579298Y939791D01*
X1577776Y941776D01*
X1575791Y943298D01*
X1573480Y944256D01*
X1571000Y944582D01*
X1568520Y944256D01*
X1566209Y943298D01*
X1564225Y941776D01*
X1564056Y941556D01*
X1562272D01*
X1560575Y941333D01*
X1558994Y940678D01*
X1556521Y942225D01*
X1556408Y942475D01*
X1557256Y944520D01*
X1557582Y947000D01*
X1557256Y949480D01*
X1556298Y951791D01*
X1554776Y953775D01*
X1553929Y954425D01*
X1555298Y956209D01*
X1556255Y958520D01*
X1556582Y961000D01*
X1556255Y963480D01*
X1555298Y965791D01*
X1554902Y966307D01*
X1554054Y968496D01*
X1554901Y970693D01*
X1555295Y971206D01*
X1556252Y973517D01*
X1556579Y975997D01*
X1556252Y978477D01*
X1555295Y980788D01*
X1553772Y982772D01*
X1551788Y984295D01*
X1549477Y985252D01*
X1546997Y985579D01*
D02*
G37*
G36*
X1394000Y1014565D02*
X1391354Y1014305D01*
X1388809Y1013533D01*
X1386463Y1012279D01*
X1384408Y1010592D01*
X1382721Y1008537D01*
X1381467Y1006191D01*
X1380695Y1003646D01*
X1380435Y1001000D01*
X1380695Y998354D01*
X1381467Y995809D01*
X1382721Y993464D01*
X1384408Y991408D01*
X1386463Y989721D01*
X1388809Y988467D01*
X1391354Y987695D01*
X1394000Y987435D01*
X1396647Y987695D01*
X1399191Y988467D01*
X1401537Y989721D01*
X1403592Y991408D01*
X1405279Y993464D01*
X1406533Y995809D01*
X1407305Y998354D01*
X1407565Y1001000D01*
X1407305Y1003646D01*
X1406533Y1006191D01*
X1405279Y1008537D01*
X1403592Y1010592D01*
X1401537Y1012279D01*
X1399191Y1013533D01*
X1396647Y1014305D01*
X1394000Y1014565D01*
D02*
G37*
G36*
X986000Y1043165D02*
X983354Y1042905D01*
X980809Y1042133D01*
X978464Y1040879D01*
X976408Y1039192D01*
X974721Y1037137D01*
X973467Y1034791D01*
X972695Y1032246D01*
X972435Y1029600D01*
X972695Y1026954D01*
X973467Y1024409D01*
X974721Y1022064D01*
X976408Y1020008D01*
X978464Y1018321D01*
X980809Y1017067D01*
X983354Y1016295D01*
X986000Y1016035D01*
X988646Y1016295D01*
X991191Y1017067D01*
X993537Y1018321D01*
X995592Y1020008D01*
X997279Y1022064D01*
X998533Y1024409D01*
X999305Y1026954D01*
X999565Y1029600D01*
X999305Y1032246D01*
X998533Y1034791D01*
X997279Y1037137D01*
X995592Y1039192D01*
X993537Y1040879D01*
X991191Y1042133D01*
X988646Y1042905D01*
X986000Y1043165D01*
D02*
G37*
%LPD*%
D62*
X1323000Y509750D02*
Y560000D01*
X1729001Y814771D02*
X1810000Y815000D01*
D64*
X387000Y776000D02*
Y778000D01*
Y776000D02*
X408000Y755000D01*
X344000Y866000D02*
X384000D01*
D66*
X1408500Y752500D02*
Y798000D01*
X1398750Y703250D02*
Y788000D01*
X1388750Y685250D02*
Y778000D01*
X1522071Y572000D02*
X1522072Y570000D01*
X1621750Y564000D02*
Y649750D01*
X1525000Y967000D02*
X1538000D01*
X1547000Y960000D02*
Y961000D01*
X1538000Y967000D02*
X1546997Y975997D01*
X1547000Y946000D02*
X1548000Y947000D01*
X1469000Y913000D02*
Y958000D01*
X1537500Y924250D02*
X1564250D01*
X1408250Y712500D02*
X1408750Y712000D01*
X1408500Y712750D02*
Y752500D01*
X1664750Y657000D02*
Y687000D01*
X1536750Y947000D02*
X1548000D01*
X1512000Y922250D02*
X1536750Y947000D01*
X1521574Y897294D02*
Y922074D01*
X1534500Y921250D02*
X1537500Y924250D01*
X1562272Y935000D02*
X1571000D01*
X1592750Y867750D02*
Y940000D01*
X1348750Y515750D02*
Y558000D01*
X384500Y1085750D02*
X409750D01*
X382750Y1068250D02*
X405750D01*
X1399000Y913250D02*
Y947000D01*
X1525250Y954500D02*
X1541500D01*
X1547000Y960000D01*
X1336000Y502250D02*
Y557750D01*
X1320500Y651000D02*
X1382250D01*
X1321750Y670000D02*
X1399750D01*
X1693000Y793500D02*
X1695500D01*
X1766750D01*
X1692500Y731600D02*
X1810000D01*
X1521574Y897294D02*
X1521824Y897044D01*
X1563826D01*
X1521574Y922074D02*
X1530250Y930750D01*
X1558022D01*
X1562272Y935000D01*
X1512000Y892293D02*
Y922250D01*
Y892293D02*
X1531000Y873293D01*
X1695500Y780000D02*
X1777000D01*
X1560000Y613500D02*
X1560326Y613826D01*
X1376250Y604000D02*
X1418000D01*
X1695500Y942000D02*
X1810000D01*
X1695500Y891200D02*
X1810000D01*
X1709000Y713250D02*
X1751500Y670750D01*
X1683750Y722250D02*
X1793950D01*
X1683500Y722500D02*
X1683750Y722250D01*
X1793950D02*
X1810000Y706200D01*
X1631000Y582000D02*
Y686750D01*
X1611000Y665750D02*
Y692500D01*
X1569000Y573000D02*
Y661000D01*
X1609500Y564000D02*
Y640750D01*
X1522070Y573000D02*
X1522071Y572000D01*
X1522000Y659000D02*
X1522070Y573000D01*
X1689000Y697759D02*
X1691134Y695634D01*
X1747250Y639750D01*
X1700000Y704500D02*
X1749125Y655375D01*
X1695500Y840500D02*
X1810000D01*
X1408250Y712500D02*
X1408500Y712750D01*
D67*
X1545000Y608000D02*
Y675750D01*
X913000Y535750D02*
Y597000D01*
X1635000Y1122750D02*
X1642000Y1115750D01*
X1635000Y1122750D02*
Y1166000D01*
X1556326Y613826D02*
Y661782D01*
X1534000Y613500D02*
Y663357D01*
D73*
X530000Y530000D02*
D03*
X1750000Y550000D02*
D03*
Y1350000D02*
D03*
X350000D02*
D03*
D74*
X595000Y1317000D02*
D03*
X849000D02*
D03*
X1546000D02*
D03*
X1292000D02*
D03*
X935000Y907400D02*
D03*
Y653400D02*
D03*
D75*
X745400Y1280000D02*
D03*
X720000D02*
D03*
X1417000Y1276000D02*
D03*
X1442400D02*
D03*
X976000Y778400D02*
D03*
Y803800D02*
D03*
D76*
X694600Y1280000D02*
D03*
X1391600Y1276000D02*
D03*
D77*
X724000Y896200D02*
D03*
Y921600D02*
D03*
D78*
Y947000D02*
D03*
D79*
X600000Y984000D02*
D03*
X408000Y755000D02*
D03*
X344000Y866000D02*
D03*
X804000Y821000D02*
D03*
X726000Y769000D02*
D03*
X930000Y1067000D02*
D03*
X944000Y1166000D02*
D03*
X725000Y1155000D02*
D03*
X518750Y1172500D02*
D03*
X1082000Y765000D02*
D03*
X1269000Y1057000D02*
D03*
X1149000Y682000D02*
D03*
X986000Y1029600D02*
D03*
X986000Y1113000D02*
D03*
X1394000Y1001000D02*
D03*
X1320000Y1166000D02*
D03*
X1425000Y1212000D02*
D03*
X1635000Y1166000D02*
D03*
X1592750Y867750D02*
D03*
X1611000Y692500D02*
D03*
X410000Y1086000D02*
D03*
X540000Y742000D02*
D03*
Y684000D02*
D03*
X701000Y657000D02*
D03*
X745000Y595000D02*
D03*
X1578000Y1032000D02*
D03*
D80*
X976000Y753000D02*
D03*
D81*
X1810000Y757000D02*
D03*
Y731600D02*
D03*
X1314000Y948200D02*
D03*
X1288600D02*
D03*
X1314000Y973600D02*
D03*
X1288600D02*
D03*
X1314000Y999000D02*
D03*
X1578700Y526500D02*
D03*
Y501100D02*
D03*
X1553300Y526500D02*
D03*
Y501100D02*
D03*
X1527900Y526500D02*
D03*
Y501100D02*
D03*
X1502500Y526500D02*
D03*
X1604100Y501100D02*
D03*
Y526500D02*
D03*
X1629500Y501100D02*
D03*
Y526500D02*
D03*
X1654900Y501100D02*
D03*
Y526500D02*
D03*
X1810000Y840400D02*
D03*
Y865800D02*
D03*
Y891200D02*
D03*
Y916600D02*
D03*
Y942000D02*
D03*
D82*
Y706200D02*
D03*
X1288600Y999000D02*
D03*
X1810000Y815000D02*
D03*
D83*
X320000Y700800D02*
D03*
Y650000D02*
D03*
D84*
Y599200D02*
D03*
D85*
X1502500Y501100D02*
D03*
D86*
X1439000Y526000D02*
D03*
X1575000Y1400000D02*
D03*
X1540000D02*
D03*
X1505000D02*
D03*
X1470000D02*
D03*
X1435000D02*
D03*
X1400000Y1400000D02*
D03*
X1365000D02*
D03*
X1330000D02*
D03*
X1295000D02*
D03*
X1260000D02*
D03*
X1270000Y490000D02*
D03*
X1235000D02*
D03*
X1200000D02*
D03*
X1165000D02*
D03*
X1130000D02*
D03*
X1095000D02*
D03*
X1060000D02*
D03*
X1025000D02*
D03*
X990000D02*
D03*
X955000D02*
D03*
X920000D02*
D03*
X885000D02*
D03*
X850000D02*
D03*
X815000D02*
D03*
X780000D02*
D03*
X745000D02*
D03*
X710000D02*
D03*
X675000D02*
D03*
X1457750Y1179000D02*
D03*
Y1150000D02*
D03*
X384000Y721000D02*
D03*
X525000Y1065000D02*
D03*
X448000Y1156000D02*
D03*
X447000Y1037000D02*
D03*
X404000Y1002000D02*
D03*
X353000Y929000D02*
D03*
X405000Y815000D02*
D03*
X667000Y578000D02*
D03*
X551500Y570500D02*
D03*
X502000Y863000D02*
D03*
X384000Y866000D02*
D03*
X387000Y778000D02*
D03*
X645000Y1239000D02*
D03*
X783000Y1238000D02*
D03*
X1103000Y613000D02*
D03*
X1314500Y610500D02*
D03*
X308500Y793000D02*
D03*
X1610750Y1151250D02*
D03*
X1478000Y978250D02*
D03*
X1518000Y978500D02*
D03*
X1512000Y1134500D02*
D03*
X1411500Y1066250D02*
D03*
X907750Y1156750D02*
D03*
X1107900Y1004650D02*
D03*
X1534750Y836750D02*
D03*
X1493000Y748000D02*
D03*
X1429000Y730000D02*
D03*
X1454000Y847750D02*
D03*
X1043000Y1004500D02*
D03*
X1130000Y943000D02*
D03*
X1457750Y1164750D02*
D03*
X1602500Y743500D02*
D03*
X1729000Y815000D02*
D03*
X1036250Y855250D02*
D03*
X453750Y791000D02*
D03*
X651750Y639750D02*
D03*
X664750Y810000D02*
D03*
X1323000Y560000D02*
D03*
Y509750D02*
D03*
X1108000Y1087750D02*
D03*
X1043250Y1088000D02*
D03*
X1443250Y986750D02*
D03*
X1665250Y869750D02*
D03*
X1610000Y1200000D02*
D03*
Y956000D02*
D03*
Y991000D02*
D03*
Y1090000D02*
D03*
X640000Y490000D02*
D03*
X1068000Y613000D02*
D03*
X1290000Y790000D02*
D03*
X1160000Y613000D02*
D03*
X1345000Y1000000D02*
D03*
X1367000Y840000D02*
D03*
X1474000Y526000D02*
D03*
X280000Y490000D02*
D03*
Y1050000D02*
D03*
X297500Y1085000D02*
D03*
X280000Y1120000D02*
D03*
X297500Y1155000D02*
D03*
X280000Y1190000D02*
D03*
X297500Y1225000D02*
D03*
X280000Y1260000D02*
D03*
X297500Y1295000D02*
D03*
X280000Y1330000D02*
D03*
X297500Y1365000D02*
D03*
X280000Y1400000D02*
D03*
X315000Y1120000D02*
D03*
X332500Y1155000D02*
D03*
X315000Y1190000D02*
D03*
X332500Y1225000D02*
D03*
X315000Y1260000D02*
D03*
X332500Y1295000D02*
D03*
X315000Y1400000D02*
D03*
X367500Y665000D02*
D03*
X350000Y700000D02*
D03*
Y1120000D02*
D03*
X367500Y1155000D02*
D03*
X350000Y1190000D02*
D03*
X367500Y1225000D02*
D03*
X350000Y1260000D02*
D03*
X367500Y1295000D02*
D03*
X350000Y1400000D02*
D03*
X385000Y1190000D02*
D03*
X402500Y1225000D02*
D03*
X385000Y1260000D02*
D03*
X402500Y1295000D02*
D03*
Y1365000D02*
D03*
X385000Y1400000D02*
D03*
X420000Y1120000D02*
D03*
X437500Y1225000D02*
D03*
X420000Y1260000D02*
D03*
X437500Y1295000D02*
D03*
X420000Y1330000D02*
D03*
X437500Y1365000D02*
D03*
X420000Y1400000D02*
D03*
X472500Y1225000D02*
D03*
X455000Y1260000D02*
D03*
X472500Y1295000D02*
D03*
X455000Y1330000D02*
D03*
X472500Y1365000D02*
D03*
X455000Y1400000D02*
D03*
X507500Y1225000D02*
D03*
X490000Y1260000D02*
D03*
X507500Y1295000D02*
D03*
X490000Y1330000D02*
D03*
X507500Y1365000D02*
D03*
X490000Y1400000D02*
D03*
X542500Y1225000D02*
D03*
X525000Y1260000D02*
D03*
X542500Y1295000D02*
D03*
X525000Y1330000D02*
D03*
X542500Y1365000D02*
D03*
X525000Y1400000D02*
D03*
X560000Y1260000D02*
D03*
Y1330000D02*
D03*
X577500Y1365000D02*
D03*
X560000Y1400000D02*
D03*
X595000Y1260000D02*
D03*
X612500Y1365000D02*
D03*
X595000Y1400000D02*
D03*
X630000Y700000D02*
D03*
Y770000D02*
D03*
Y840000D02*
D03*
Y1330000D02*
D03*
X647500Y1365000D02*
D03*
X630000Y1400000D02*
D03*
X665000Y560000D02*
D03*
Y770000D02*
D03*
Y1330000D02*
D03*
X682500Y1365000D02*
D03*
X665000Y1400000D02*
D03*
X700000Y560000D02*
D03*
X717500Y1365000D02*
D03*
X700000Y1400000D02*
D03*
X735000Y560000D02*
D03*
X752500Y665000D02*
D03*
Y1365000D02*
D03*
X735000Y1400000D02*
D03*
X770000Y560000D02*
D03*
X787500Y665000D02*
D03*
Y1015000D02*
D03*
X770000Y1050000D02*
D03*
Y1120000D02*
D03*
Y1190000D02*
D03*
X787500Y1365000D02*
D03*
X770000Y1400000D02*
D03*
X805000Y560000D02*
D03*
X822500Y875000D02*
D03*
X805000Y910000D02*
D03*
X822500Y1015000D02*
D03*
X805000Y1050000D02*
D03*
X822500Y1365000D02*
D03*
X805000Y1400000D02*
D03*
X840000Y840000D02*
D03*
Y980000D02*
D03*
X857500Y1365000D02*
D03*
X840000Y1400000D02*
D03*
X892500Y665000D02*
D03*
Y735000D02*
D03*
Y1365000D02*
D03*
X875000Y1400000D02*
D03*
X910000Y700000D02*
D03*
X927500Y735000D02*
D03*
X910000Y1190000D02*
D03*
X927500Y1225000D02*
D03*
X910000Y1260000D02*
D03*
X927500Y1295000D02*
D03*
X910000Y1330000D02*
D03*
X927500Y1365000D02*
D03*
X910000Y1400000D02*
D03*
X945000Y700000D02*
D03*
Y840000D02*
D03*
X962500Y875000D02*
D03*
Y945000D02*
D03*
X945000Y980000D02*
D03*
X962500Y1015000D02*
D03*
Y1225000D02*
D03*
X945000Y1260000D02*
D03*
X962500Y1295000D02*
D03*
X945000Y1330000D02*
D03*
X962500Y1365000D02*
D03*
X945000Y1400000D02*
D03*
X980000Y630000D02*
D03*
X997500Y665000D02*
D03*
X980000Y700000D02*
D03*
X997500Y875000D02*
D03*
X980000Y910000D02*
D03*
X997500Y945000D02*
D03*
X980000Y980000D02*
D03*
X997500Y1085000D02*
D03*
X980000Y1190000D02*
D03*
X997500Y1225000D02*
D03*
X980000Y1260000D02*
D03*
X997500Y1295000D02*
D03*
X980000Y1330000D02*
D03*
X997500Y1365000D02*
D03*
X980000Y1400000D02*
D03*
X1015000Y630000D02*
D03*
X1032500Y875000D02*
D03*
X1015000Y910000D02*
D03*
X1032500Y945000D02*
D03*
X1015000Y980000D02*
D03*
Y1190000D02*
D03*
X1032500Y1225000D02*
D03*
X1015000Y1260000D02*
D03*
X1032500Y1295000D02*
D03*
X1015000Y1330000D02*
D03*
X1032500Y1365000D02*
D03*
X1015000Y1400000D02*
D03*
X1050000Y630000D02*
D03*
Y910000D02*
D03*
Y980000D02*
D03*
X1067500Y1225000D02*
D03*
X1050000Y1260000D02*
D03*
X1067500Y1295000D02*
D03*
X1050000Y1330000D02*
D03*
X1067500Y1365000D02*
D03*
X1050000Y1400000D02*
D03*
X1102500Y945000D02*
D03*
X1085000Y1260000D02*
D03*
X1102500Y1295000D02*
D03*
X1085000Y1330000D02*
D03*
X1102500Y1365000D02*
D03*
X1085000Y1400000D02*
D03*
X1120000Y910000D02*
D03*
Y980000D02*
D03*
X1137500Y1155000D02*
D03*
Y1295000D02*
D03*
X1120000Y1330000D02*
D03*
X1137500Y1365000D02*
D03*
X1120000Y1400000D02*
D03*
X1172500Y1155000D02*
D03*
X1155000Y1190000D02*
D03*
X1172500Y1225000D02*
D03*
X1155000Y1330000D02*
D03*
X1172500Y1365000D02*
D03*
X1155000Y1400000D02*
D03*
X1190000Y1190000D02*
D03*
X1207500Y1365000D02*
D03*
X1190000Y1400000D02*
D03*
X1242500Y665000D02*
D03*
X1225000Y700000D02*
D03*
Y1400000D02*
D03*
X1277500Y595000D02*
D03*
X1260000Y700000D02*
D03*
X1487500Y1225000D02*
D03*
Y1295000D02*
D03*
X1470000Y1330000D02*
D03*
X1505000Y1190000D02*
D03*
X1522500Y1225000D02*
D03*
X1505000Y1260000D02*
D03*
Y1330000D02*
D03*
X1557500Y1225000D02*
D03*
X1540000Y1260000D02*
D03*
X1592500Y1225000D02*
D03*
X1575000Y1260000D02*
D03*
X1592500Y1295000D02*
D03*
X1627500Y1015000D02*
D03*
Y1225000D02*
D03*
X1610000Y1260000D02*
D03*
Y1400000D02*
D03*
X1645000Y840000D02*
D03*
X1662500Y1015000D02*
D03*
Y1365000D02*
D03*
X1645000Y1400000D02*
D03*
X1680000Y490000D02*
D03*
X1697500Y525000D02*
D03*
Y1295000D02*
D03*
X1680000Y1330000D02*
D03*
X1697500Y1365000D02*
D03*
X1680000Y1400000D02*
D03*
X1715000Y490000D02*
D03*
X1732500Y595000D02*
D03*
X1715000Y1120000D02*
D03*
X1732500Y1155000D02*
D03*
X1715000Y1190000D02*
D03*
X1732500Y1225000D02*
D03*
X1715000Y1260000D02*
D03*
X1732500Y1295000D02*
D03*
X1715000Y1330000D02*
D03*
Y1400000D02*
D03*
X1750000Y490000D02*
D03*
X1767500Y595000D02*
D03*
Y1085000D02*
D03*
X1750000Y1120000D02*
D03*
X1767500Y1155000D02*
D03*
X1750000Y1190000D02*
D03*
X1767500Y1225000D02*
D03*
X1750000Y1260000D02*
D03*
X1767500Y1295000D02*
D03*
X1750000Y1400000D02*
D03*
X1785000Y490000D02*
D03*
X1802500Y525000D02*
D03*
Y595000D02*
D03*
X1785000Y630000D02*
D03*
X1802500Y665000D02*
D03*
X1785000Y1050000D02*
D03*
X1802500Y1085000D02*
D03*
X1785000Y1120000D02*
D03*
X1802500Y1155000D02*
D03*
X1785000Y1190000D02*
D03*
X1802500Y1225000D02*
D03*
X1785000Y1260000D02*
D03*
X1802500Y1295000D02*
D03*
X1785000Y1330000D02*
D03*
X1802500Y1365000D02*
D03*
X1785000Y1400000D02*
D03*
X1820000Y490000D02*
D03*
Y560000D02*
D03*
Y630000D02*
D03*
Y980000D02*
D03*
Y1050000D02*
D03*
Y1120000D02*
D03*
Y1190000D02*
D03*
Y1260000D02*
D03*
Y1330000D02*
D03*
Y1400000D02*
D03*
X1134000Y965000D02*
D03*
X1505000Y859000D02*
D03*
X1290000Y820000D02*
D03*
Y850000D02*
D03*
Y880000D02*
D03*
Y910000D02*
D03*
X433000Y740000D02*
D03*
X1333000Y1067000D02*
D03*
X1454000Y748000D02*
D03*
X1134000Y993000D02*
D03*
Y864000D02*
D03*
X542000Y1121000D02*
D03*
X404000Y1037000D02*
D03*
X1491500Y561000D02*
D03*
X1456500D02*
D03*
X1421500D02*
D03*
X1404000Y526000D02*
D03*
X1367250Y805000D02*
D03*
Y770000D02*
D03*
D87*
X1545000Y608000D02*
D03*
X1522000Y659000D02*
D03*
X1534000Y663532D02*
D03*
X913000Y535750D02*
D03*
X1399000Y947000D02*
D03*
X1469000Y913000D02*
D03*
Y958000D02*
D03*
X1525000Y967000D02*
D03*
X1547000Y961000D02*
D03*
X1546997Y975997D02*
D03*
X1548000Y947000D02*
D03*
X1642000Y1115750D02*
D03*
X1695500Y793500D02*
D03*
X1777000Y780000D02*
D03*
X1320250Y650750D02*
D03*
X1664750Y657000D02*
D03*
Y687000D02*
D03*
X1691000Y695500D02*
D03*
X1321750Y670000D02*
D03*
X1521574Y897294D02*
D03*
X1564250Y924250D02*
D03*
X1408500Y798000D02*
D03*
X1408750Y712000D02*
D03*
X1408500Y752500D02*
D03*
X1348750Y558000D02*
D03*
X1388750Y778000D02*
D03*
X1398750Y788000D02*
D03*
X1399000Y703000D02*
D03*
X1545000Y675750D02*
D03*
X1389500Y684500D02*
D03*
X1556330Y613500D02*
D03*
X1534500Y921250D02*
D03*
X1571000Y935000D02*
D03*
X1621750Y649750D02*
D03*
X1700000Y704500D02*
D03*
X1631000Y686750D02*
D03*
X1592750Y940000D02*
D03*
X1695500Y942000D02*
D03*
Y891200D02*
D03*
Y840500D02*
D03*
X1683500Y722500D02*
D03*
X1692500Y731600D02*
D03*
X1709000Y713250D02*
D03*
X1621750Y564000D02*
D03*
X1609500D02*
D03*
X1348750Y515750D02*
D03*
X1631000Y582000D02*
D03*
X384500Y1085750D02*
D03*
X382750Y1068250D02*
D03*
X405750D02*
D03*
X1399000Y913250D02*
D03*
X1563826Y897044D02*
D03*
X1336000Y557750D02*
D03*
X1525250Y954500D02*
D03*
X1336000Y498000D02*
D03*
X913000Y597000D02*
D03*
X1522000Y573000D02*
D03*
X1569000D02*
D03*
X1382250Y651000D02*
D03*
X1399750Y670000D02*
D03*
X1556326Y661782D02*
D03*
X1611000Y665750D02*
D03*
X1747250Y639750D02*
D03*
X1767000Y793500D02*
D03*
X1695500Y780000D02*
D03*
X1531000Y873293D02*
D03*
X1418000Y604000D02*
D03*
X1376250D02*
D03*
X1534000Y613500D02*
D03*
X1751500Y670750D02*
D03*
X1749130Y655380D02*
D03*
X1569000Y661000D02*
D03*
X1609500Y640750D02*
D03*
D88*
X1582500Y775000D02*
D03*
X1571500D02*
D03*
X1560500D02*
D03*
X1582500Y786000D02*
D03*
X1571500D02*
D03*
X1560500D02*
D03*
X1582500Y797000D02*
D03*
X1571500D02*
D03*
X1560500D02*
D03*
M02*
